<?xml version="1.0" encoding="utf-8"?>
<!-- Generator: Adobe Illustrator 17.0.2, SVG Export Plug-In . SVG Version: 6.00 Build 0)  -->
<!DOCTYPE svg PUBLIC "-//W3C//DTD SVG 1.1//EN" "http://www.w3.org/Graphics/SVG/1.1/DTD/svg11.dtd">
<svg version="1.1" id="Layer_1" xmlns="http://www.w3.org/2000/svg" xmlns:xlink="http://www.w3.org/1999/xlink" x="0px" y="0px"
	 width="97.979px" height="44.986px" viewBox="0 0 97.979 44.986" enable-background="new 0 0 97.979 44.986" xml:space="preserve">
<g>
	<path fill="#FFFFFF" d="M73.119,3c0.442,0,1.685,0.054,3.979,0.537c-0.146,0.108-0.297,0.23-0.456,0.369
		c-0.22,0.071-0.913,0.239-2.695,0.32c-2.545,0.116-15.774,0.157-15.907,0.157l-0.035-0.04C58,4.254,57.999,4.149,58.002,4.027
		c0.009-0.298,0.033-0.53,0.06-0.708l14.744-0.308l0.056,0.012l0.154-0.022C73.042,3,73.076,3,73.119,3 M88.279,10.593
		c0.54,0.814,0.818,1.27,0.892,1.392c0.628,1.137,2.054,2.405,4.132,2.405c0.449,0,0.907-0.062,1.363-0.183l0.059-0.016
		c0.059-0.016,0.123-0.033,0.189-0.05c0.169,2.17,0.148,5.369-1.627,8.636c-2.265,4.169-6.504,7.623-9.884,9.333
		c-1.612,0.137-4.854,0.605-6.795,2.193c-0.602,0.492-1.066,0.987-1.475,1.424c-0.866,0.923-1.491,1.59-3.544,2.181
		c-3.322,0.956-15.163,4.077-28.04,4.077l-0.319-0.001c-12.436-0.051-26.339-4.209-26.478-4.251l-0.045-0.013l-0.044-0.012
		c-0.01-0.003-1.105-0.357-2.137-1.375c-2.018-1.991-3.651-2.851-6.123-4.151c-1.972-1.038-3.557-1.977-3.993-2.239
		c-0.168-0.138-0.517-0.474-0.671-0.842c-0.37-0.886-0.648-1.975-0.74-2.359c0-0.005,0-0.01,0.001-0.016L2.983,26.67
		c-0.01-0.043-0.016-0.067-0.016-0.069l0.034,0.121c0.003-0.06,0.016-0.15,0.058-0.237c0.514-1.053,2.571-5.473,2.806-5.978
		c0.194-0.39,0.45-0.977,0.617-1.641c0.93-0.059,2.137-0.129,2.978-0.177c0.177,0.02,0.376,0.033,0.597,0.033
		c0.964,0,2.499-0.254,4.336-1.462c1.411-0.928,2.219-1.5,2.597-1.776c0.246-0.108,0.566-0.21,0.735-0.216
		c0.329-0.012,0.679-0.016,0.999-0.016c0.011,0,0.023,0,0.034,0l0.2,0.662c0.458,1.593,2.08,3.285,4.602,3.285
		c0.098,0,0.198-0.003,0.301-0.008c1.536-0.08,23.68-1.388,24.588-1.441l11.082-0.528l0.098-0.005l0.095-0.011
		c0.012-0.001,1.198-0.132,2.537-0.132c1.365,0,2.053,0.133,2.342,0.212c1.006,0.276,2.161,0.415,3.435,0.415
		c1.726,0,3.634-0.258,5.234-0.708c1.766-0.497,9.515-2.947,10.546-3.274C85.982,13.188,87.562,12.04,88.279,10.593 M73.119,0
		c-0.255,0-0.375,0.012-0.375,0.012L57.399,0.333c0,0-0.082-0.017-0.217-0.017c-0.571,0-2.08,0.315-2.178,3.623
		c-0.093,3.11,1.72,3.482,2.591,3.482c0.273,0,0.454-0.037,0.454-0.037s13.396-0.04,16.035-0.16c2.639-0.12,3.857-0.441,4.425-0.961
		C79.076,5.741,79.32,5.66,80.294,5.3c0.12-0.044,0.257-0.064,0.404-0.064c1.049,0,2.64,0.985,2.64,0.985s2.111,0.801,2.354,2.363
		c0.243,1.562-2.679,2.243-2.679,2.243s-8.728,2.764-10.555,3.278c-1.16,0.326-2.81,0.596-4.422,0.596
		c-0.927,0-1.841-0.089-2.642-0.309c-0.897-0.246-2.066-0.319-3.135-0.319c-1.542,0-2.873,0.151-2.873,0.151l-11.082,0.528
		c0,0-23.058,1.362-24.6,1.442c-0.05,0.003-0.098,0.004-0.146,0.004c-1.417,0-1.722-1.125-1.722-1.125s0,0-0.447-1.482
		c-0.367-1.219-1.064-1.327-1.3-1.327c-0.051,0-0.081,0.005-0.081,0.005s-0.577-0.018-1.287-0.018c-0.355,0-0.743,0.004-1.108,0.018
		c-1.096,0.04-2.192,0.641-2.192,0.641s-0.731,0.561-2.679,1.843c-1.247,0.82-2.178,0.968-2.687,0.968
		c-0.286,0-0.439-0.047-0.439-0.047s-3.572,0.2-4.547,0.28c-0.974,0.08-1.461,0.921-1.421,1.562C3.692,18.159,3.164,19.2,3.164,19.2
		s-2.273,4.887-2.801,5.969c-0.528,1.082-0.325,2.083-0.325,2.083s0.365,1.642,0.934,3.004c0.568,1.362,1.759,2.176,1.759,2.176
		s1.84,1.122,4.276,2.404c2.436,1.282,3.735,1.976,5.413,3.632c1.678,1.656,3.464,2.136,3.464,2.136s14.289,4.326,27.334,4.38
		c0.111,0,0.22,0.001,0.331,0.001c12.92,0,25.006-3.081,28.87-4.194c3.897-1.122,4.425-2.804,6.089-4.166
		c1.664-1.362,5.683-1.562,5.683-1.562c3.938-1.843,9.012-5.849,11.732-10.854c2.72-5.005,2.03-9.897,1.827-11.9
		c-0.11-1.09-0.797-1.409-1.642-1.409c-0.709,0-1.529,0.224-2.214,0.407c-0.215,0.057-0.411,0.082-0.59,0.082
		c-1.074,0-1.521-0.883-1.521-0.883s-0.771-1.322-2.842-4.246c-2.07-2.924-6.982-4.727-10.798-5.568C75.379,0.084,73.787,0,73.119,0
		L73.119,0z"/>
</g>
</svg>
