<?xml version="1.0" encoding="utf-8"?>
<!-- Generator: Adobe Illustrator 17.0.2, SVG Export Plug-In . SVG Version: 6.00 Build 0)  -->
<!DOCTYPE svg PUBLIC "-//W3C//DTD SVG 1.1//EN" "http://www.w3.org/Graphics/SVG/1.1/DTD/svg11.dtd">
<svg version="1.1" id="Layer_1" xmlns="http://www.w3.org/2000/svg" xmlns:xlink="http://www.w3.org/1999/xlink" x="0px" y="0px"
	 width="99.993px" height="59.002px" viewBox="0 0 99.993 59.002" enable-background="new 0 0 99.993 59.002" xml:space="preserve">
<g>
	<path fill="#FFFFFF" d="M21.578,3L21.578,3c0.8,0,1.787,0.438,2.159,0.603l0.112,0.05c0.121,0.053,0.304,0.125,0.537,0.215
		c0.986,0.38,3.606,1.391,4.588,2.946c0.376,0.595,0.627,1.373,0.892,2.197c0.643,1.993,1.719,5.329,5.846,6.008
		c1.161,0.191,2.098,0.28,2.95,0.28c2.575,0,4.195-0.882,5.761-1.735c0.339-0.185,0.686-0.393,1.045-0.61
		c1.166-0.704,2.172-1.313,3.525-1.313c0.836,0,1.8,0.231,2.866,0.687c5.109,2.185,14.263,5.89,14.769,6.094
		c0.497,0.209,5.823,2.394,12.69,3.13c6.4,0.686,8.751,1.509,11.434,4.002c3.052,2.836,6.178,6.621,6.218,13.189l0.01,1.274
		c0.057,6.654,0.082,9.69-3.693,13.36c-1.792,1.741-3.662,2.624-5.56,2.624c-1.593,0-2.754-0.629-3.18-0.899
		c-2.404-1.527-44.276-29.692-45.456-30.486c-0.448-0.31-3.042-2.004-6.327-2.004c-2.113,0-5.161,0.706-7.676,4.071
		C21.103,32.018,16.514,39.263,16,40.079c-0.182,0.247-1.918,2.493-4.688,2.493l-0.054,0c-2.029-0.021-5.667-0.543-7.229-3.802
		c-0.305-0.637-1.278-2.902-0.968-5.283c0.272-2.095,1.477-3.679,3.682-4.843c6.604-3.485,14.716-7.836,15.505-8.259
		c1.58-0.773,4.076-3.025,3.888-6.845c-0.161-3.271-2.362-4.982-3.678-6.004c-0.42-0.327-0.897-0.697-1.051-0.923
		c-0.617-0.903-1.089-2.658-0.331-3.47C21.124,3.089,21.207,3,21.578,3 M21.577,0c-0.952,0-1.926,0.27-2.697,1.096
		c-2.009,2.154-1.148,5.458,0.048,7.209c1.196,1.751,4.066,2.462,4.21,5.382c0.144,2.92-2.249,4.021-2.249,4.021
		s-8.564,4.596-15.548,8.282c-6.985,3.686-5.693,10.58-4.019,14.075c1.674,3.495,5.262,5.458,9.903,5.506c0.029,0,0.057,0,0.085,0
		c4.587,0,7.186-3.83,7.186-3.83s4.88-7.756,8.994-13.261c1.649-2.206,3.566-2.867,5.272-2.867c2.551,0,4.631,1.479,4.631,1.479
		S80.452,56.056,82.94,57.636c1.148,0.729,2.825,1.366,4.788,1.366c2.291,0,4.971-0.868,7.651-3.473
		c4.976-4.836,4.641-9.096,4.593-16.804c-0.048-7.708-3.827-12.256-7.176-15.368c-3.349-3.112-6.459-4.069-13.156-4.788
		c-6.698-0.718-11.865-2.92-11.865-2.92s-9.473-3.83-14.735-6.08c-1.568-0.67-2.895-0.928-4.046-0.928
		c-2.711,0-4.439,1.434-6.006,2.288c-1.601,0.872-2.6,1.37-4.326,1.37c-0.681,0-1.475-0.078-2.463-0.24
		c-3.492-0.574-2.966-4.117-4.688-6.846c-1.722-2.729-5.693-3.974-6.458-4.309C24.58,0.698,23.108,0,21.577,0L21.577,0z"/>
</g>
</svg>
