<?xml version="1.0" encoding="utf-8"?>
<!-- Generator: Adobe Illustrator 17.0.2, SVG Export Plug-In . SVG Version: 6.00 Build 0)  -->
<!DOCTYPE svg PUBLIC "-//W3C//DTD SVG 1.1//EN" "http://www.w3.org/Graphics/SVG/1.1/DTD/svg11.dtd">
<svg version="1.1" id="Layer_1" xmlns="http://www.w3.org/2000/svg" xmlns:xlink="http://www.w3.org/1999/xlink" x="0px" y="0px"
	 width="88.981px" height="100.011px" viewBox="0 0 88.981 100.011" enable-background="new 0 0 88.981 100.011"
	 xml:space="preserve">
<g>
	<path fill="#FFFFFF" d="M69.779,3c0.519,0,0.843,0.028,1.021,0.052c1.396,0.184,3.41,0.737,4.491,1.688
		c1.364,1.2,2.154,2.4,2.332,2.873c0.152,0.407,0.298,0.766,0.438,1.114c0.308,0.76,0.47,1.174,0.51,1.532
		c0.166,1.489,0.225,2.569,0.225,3.083c0,0.713-0.128,4.899-0.14,5.258l-0.236,8.029l-0.019,0.661l0.261,0.608
		c0.228,0.532,0.799,1.552,1.097,2.077l5.987,13.184c0.088,0.299,0.235,0.919,0.235,1.496c0,1.046-0.673,1.859-1.773,3.1
		c-0.683,0.771-1.389,1.568-1.853,2.561l-0.042,0.089l-0.036,0.091c-1.108,2.845-4.11,10.511-4.682,11.798l-0.24,0.54l-0.017,0.59
		l-0.544,18.518c-0.002,0.077-0.01,0.204-0.015,0.29c-0.008,0.14-0.011,0.243-0.011,0.266c-0.005,0.821-0.045,1.675-0.085,2.478
		l-0.525,10.605c-1.752-1.892-5.113-5.6-5.53-6.119c-0.414-0.519-0.792-1.438-0.919-2.027c-0.109-0.508-0.175-1.369-0.098-1.933
		c0.028-0.206,0.079-0.466,0.148-0.754l0.048-0.201l0.004-0.038c0.156-0.465,0.726-1.668,1.053-2.281
		c0.273-0.51,0.551-1.032,0.757-1.424c0.979-1.869,1.024-3.06,0.766-4.512l-0.026-0.15c-0.119-0.727-0.384-1.491-0.642-2.234
		c-0.104-0.3-0.278-0.801-0.315-0.968c-0.022-0.1-0.026-0.176-0.025-0.221c0.211-0.507,0.26-0.602,0.388-0.855l0.168-0.332
		c0.729-1.451,1.156-2.38,1.328-3.131c0.192-0.84,0.163-1.763,0.133-2.74c-0.009-0.287-0.018-0.583-0.018-0.849
		c0-0.724,0.149-1.507,0.211-1.681c0.142-0.31,0.289-0.648,0.439-0.991c0.225-0.516,0.506-1.158,0.659-1.431
		c0.044-0.079,1.091-1.951,1.438-3.374c0.349-1.436,0.132-3.461,0.122-3.548c-0.093-0.838-0.279-1.961-0.446-2.962
		c-0.087-0.525-0.171-1.021-0.216-1.349c-0.058-0.414-4.049-26.147-4.093-26.433c-0.07-0.423-0.523-2.606-2.621-4.086
		c-1.401-0.988-3.076-0.988-3.982-0.988l-0.28,0.001c-0.444,0-1.654,0.104-7.193,0.618l-0.067,0.006
		c-2.092,0.194-4.255,0.395-4.756,0.429l-0.708,0.048l-0.041,0.024c-2.072,0.19-8.771,0.774-9.228,0.81L18.286,21.77l-0.028,0.002
		l-0.028,0.003c-2.399,0.229-4.436,1.325-5.889,3.17c-2.038,2.587-2.402,5.989-2.095,8.116l0.004,0.027l0.004,0.027l1.989,12.18
		l0.007,0.045l0.009,0.045c0.124,0.639,0.269,1.167,0.444,1.624c-0.187-0.203-0.332-0.39-0.418-0.54L3.143,24.283l2.033-2.469
		l0.027-0.033l0.026-0.034c1.372-1.767,1.581-4.038,0.557-6.076L5.76,15.619l-0.028-0.051l-1.828-3.309l2.919-5.737
		c0.085-0.135,0.193-0.232,0.63-0.259l13.81,0.588l5.94,4.8l-0.001,0.002l2.331,1.89c1.577,1.422,4.185,2.03,4.458,2.09
		c1.137,0.263,2.584,0.413,3.97,0.413c2.756,0,5.3-0.493,6.667-0.758c0.199-0.039,0.366-0.071,0.491-0.093
		c0.104-0.018,0.212-0.027,0.321-0.027c0.41,0,0.774,0.127,0.954,0.202l0.005-0.011c0.337,0.157,0.712,0.296,1.121,0.448
		l2.263,0.839l1.304-2.031l0.154-0.238c0.137-0.211,0.292-0.45,0.402-0.628c0.406-0.654,0.867-1.395,1.31-1.955
		c0.814-1.028,2.525-2.754,3.095-3.212c0.485-0.389,1.038-0.936,1.586-1.477c0.189-0.186,0.525-0.519,0.676-0.656
		c0.06-0.042,0.128-0.091,0.204-0.146c0.47-0.339,1.572-1.132,2.442-1.457c0.514-0.192,1.186-0.413,2.053-0.674l4.6-1.047
		C68.383,3.042,69.13,3,69.779,3 M69.779,0c-0.863,0-1.801,0.063-2.663,0.159l-4.872,1.109c-0.855,0.257-1.67,0.517-2.336,0.766
		c-1.248,0.466-2.531,1.39-3.147,1.834c-0.106,0.077-0.194,0.14-0.261,0.186C56.347,4.16,55.911,4.59,55.527,4.97
		c-0.485,0.479-0.987,0.976-1.355,1.271c-0.777,0.624-2.648,2.525-3.57,3.689c-0.548,0.692-1.057,1.511-1.506,2.234
		c-0.151,0.243-0.391,0.607-0.533,0.829c-0.36-0.133-1.016-0.386-1.012-0.392c-0.474-0.198-1.223-0.434-2.111-0.434
		c-0.268,0-0.549,0.022-0.839,0.072c-0.143,0.025-0.326,0.061-0.545,0.103c-1.273,0.247-3.629,0.703-6.096,0.703
		c-1.105,0-2.342-0.116-3.295-0.336c-0.335-0.074-2.321-0.614-3.177-1.445c-0.008-0.006-0.016-0.011-0.023-0.017l0.002-0.002
		c-0.021-0.019-0.04-0.037-0.062-0.056l-9.026-7.294L7.445,3.26C5.934,3.314,4.87,3.908,4.193,5.075l-3.102,6.097
		c-0.242,0.644-0.41,1.582,0.13,2.436l0.014,0.023l1.871,3.387c0.298,0.593,0.65,1.735-0.246,2.889l-2.341,2.844
		c-0.687,0.793-0.565,1.634-0.344,2.202l9.393,22.79c0.708,1.418,3.332,3.93,6.081,3.93c1.685,0,2.575-0.673,2.575-1.947
		c0-0.255,0-0.932-1.119-1.922l-0.223-0.197c-1.105-0.972-1.377-1.26-1.676-2.796l-1.989-12.18c-0.233-1.611,0.132-4.117,1.482-5.83
		c0.947-1.202,2.231-1.889,3.817-2.04l24.328-1.864c0.192-0.014,9.913-0.858,9.952-0.881c0.544-0.037,2.661-0.234,4.896-0.441
		c3.94-0.365,6.549-0.605,6.916-0.605l0.286-0.001c0.785,0,1.671,0.034,2.247,0.44c1.165,0.822,1.381,2.069,1.39,2.122
		c0.093,0.597,4.03,25.987,4.082,26.359c0.048,0.348,0.137,0.878,0.23,1.439c0.159,0.953,0.338,2.034,0.422,2.788
		c0.07,0.633,0.1,1.869-0.056,2.509c-0.175,0.716-0.771,1.959-1.139,2.613c-0.228,0.405-0.517,1.067-0.796,1.707
		c-0.14,0.322-0.281,0.643-0.415,0.938c-0.27,0.592-0.482,1.877-0.482,2.928c0,0.295,0.01,0.624,0.02,0.942
		c0.024,0.779,0.046,1.516-0.06,1.981c-0.108,0.473-0.584,1.457-1.083,2.451l-0.165,0.328c-0.16,0.316-0.234,0.46-0.538,1.195
		c-0.154,0.373-0.256,1.061-0.077,1.875c0.074,0.337,0.246,0.834,0.413,1.314c0.215,0.619,0.437,1.26,0.515,1.733
		c0.012,0.074,0.025,0.145,0.037,0.213c0.137,0.771,0.187,1.308-0.474,2.57c-0.202,0.386-0.477,0.9-0.746,1.403
		c-0.171,0.32-1.31,2.546-1.377,3.237c-0.083,0.349-0.156,0.709-0.202,1.045c-0.134,0.98-0.028,2.196,0.137,2.967
		c0.202,0.941,0.746,2.317,1.508,3.271c0.606,0.758,6.338,7.056,6.816,7.488c0.092,0.083,0.186,0.173,0.281,0.265
		c0.334,0.321,0.679,0.653,1.095,0.798c0.232,0.081,0.435,0.122,0.622,0.122c0.317,0,0.588-0.118,0.875-0.36
		c0.316-0.267,0.786-0.913,1.224-2.472c0.261-0.928,0.232-2.738,0.231-2.756l0-0.013l0.001-0.013l0.273-9.301
		c-0.007,0.011-0.015,0.021-0.022,0.032c0.043-0.868,0.082-1.737,0.088-2.607c0-0.029,0.022-0.37,0.025-0.516l0.544-18.49
		c0.726-1.633,4.736-11.927,4.736-11.927c0.28-0.6,0.791-1.176,1.382-1.842c1.184-1.336,2.527-2.85,2.527-5.088
		c0-1.269-0.38-2.428-0.431-2.576l-6.117-13.472c0,0-0.808-1.41-1.014-1.891l0.236-8.029c0.002-0.046,0.141-4.537,0.141-5.346
		c0-0.771-0.091-2.048-0.244-3.416c-0.087-0.785-0.362-1.465-0.711-2.325c-0.131-0.325-0.267-0.66-0.409-1.04
		c-0.439-1.173-1.68-2.773-3.16-4.075c-1.994-1.754-5.157-2.288-6.08-2.41C70.803,0.026,70.327,0,69.779,0L69.779,0z"/>
</g>
</svg>
