<?xml version="1.0" encoding="utf-8"?>
<!-- Generator: Adobe Illustrator 17.0.2, SVG Export Plug-In . SVG Version: 6.00 Build 0)  -->
<!DOCTYPE svg PUBLIC "-//W3C//DTD SVG 1.1//EN" "http://www.w3.org/Graphics/SVG/1.1/DTD/svg11.dtd">
<svg version="1.1" id="Layer_1" xmlns="http://www.w3.org/2000/svg" xmlns:xlink="http://www.w3.org/1999/xlink" x="0px" y="0px"
	 width="96.032px" height="77.99px" viewBox="0 0 96.032 77.99" enable-background="new 0 0 96.032 77.99" xml:space="preserve">
<g>
	<path fill="#FFFFFF" d="M31.332,3c0.317,0,0.637,0.049,0.953,0.146c4.146,1.27,31.096,9.277,31.368,9.358l0.088,0.026l0.089,0.021
		c1.902,0.441,4.473,1.515,5.067,2.293c1.065,1.394,1.137,1.807,1.246,2.433c0.044,0.251,0.089,0.503,0.152,0.773
		c0.088,0.376,0.142,0.665,0.187,0.904c0.204,1.078,0.395,1.827,1.319,3.139c1.264,1.794,3.01,2.913,5.339,3.42
		c1.523,0.332,11.725,2.342,13.118,2.616c0.305,0.108,2.031,0.806,2.598,2.868c0.338,1.227,0.245,3.035-0.723,4.305
		c-0.73,0.957-1.837,1.423-3.385,1.423c-0.206,0-0.422-0.009-0.642-0.026c-6.733-0.534-19.932-1.866-20.577-1.931
		c-0.142-0.016-0.417-0.04-0.791-0.04c-3.649,0-6.736,2.023-8.258,5.413c-1.822,4.058-4.515,9.528-4.542,9.582l-0.031,0.063
		l-0.028,0.065c-0.155,0.356-1.465,3.575,0.186,7.001c1.191,2.471,2.363,3.25,3.56,3.889c0.074,0.04,0.149,0.079,0.225,0.123
		l16.591,9.365c0.48,0.42,1.636,1.697,0.549,3.532c-0.518,0.875-1.097,1.232-1.995,1.232c-0.489,0-0.941-0.109-1.235-0.2
		c-1.141-0.973-3.031-1.879-5.455-1.879c-2.593,0-31.494-0.068-31.793-0.069c-0.445,0-2.764,0.08-4.654,1.64
		c-0.179,0.13-0.947,0.486-1.833,0.486c-0.837,0-1.477-0.315-2.014-0.992c-2.243-2.824-4.987-6.87-5.693-7.92
		c-0.182-0.546-0.48-2.031,0.924-3.563c2.999-3.273,18.244-19.12,18.901-19.803c1.539-1.545,3.738-5.345,2.357-9.958
		c-1.389-4.639-5.18-6.911-8.263-7.49c-1.109-0.209-4.504-0.833-4.504-0.833l-0.034-0.006l-0.034-0.005
		c-0.146-0.023-0.55-0.078-1.143-0.078c-1.794,0-6.291,0.536-9.315,5.54l-7.291,12.433l-0.016,0.006l-0.052,0.114
		c-0.178,0.292-0.94,1.359-2.579,1.359c-0.169,0-0.346-0.011-0.526-0.032c-4.403-0.525-4.773-0.952-5.252-1.953
		c-0.737-1.54-0.618-1.991,0.213-3.251c1.245-1.887,13.282-19.877,14.882-22.267c0.283-0.251,0.664-0.497,0.819-0.529
		c1.658-0.111,4.015-0.462,4.114-0.477l0.11-0.016l0.108-0.025c0.316-0.071,3.13-0.773,4.648-3.351
		c0.689-1.17,1.342-3.141,0.541-5.887c-0.228-0.783-0.138-1.454,0.268-1.996C29.656,3.369,30.456,3,31.332,3 M31.331,0
		c-3.479,0-6.406,2.983-5.286,6.823c1.313,4.502-2.972,5.472-2.972,5.472s-2.315,0.346-3.871,0.45
		c-1.555,0.104-2.937,1.593-2.937,1.593S2.546,34.839,1.198,36.882c-1.348,2.043-1.659,3.602-0.415,6.199
		c1.244,2.597,3.248,3.117,7.603,3.636c0.307,0.037,0.6,0.054,0.882,0.054c3.712,0,5.235-2.962,5.235-2.962l7.291-12.433
		c2.195-3.631,5.362-4.057,6.728-4.057c0.419,0,0.668,0.04,0.668,0.04s3.387,0.623,4.492,0.831c1.106,0.208,4.7,1.247,5.944,5.402
		c1.244,4.156-1.624,6.996-1.624,6.996S22.14,57.072,19.03,60.465c-3.11,3.394-1.382,6.995-1.382,6.995s3.318,4.987,6.013,8.381
		c1.275,1.606,2.891,2.126,4.364,2.126c1.64,0,3.104-0.646,3.723-1.156c1.175-0.97,2.765-0.97,2.765-0.97s29.166,0.069,31.793,0.069
		s3.801,1.454,3.801,1.454s1.284,0.625,2.888,0.625c1.51,0,3.303-0.554,4.576-2.703c2.626-4.433-1.436-7.549-1.436-7.549
		s-15.97-9.015-16.811-9.489c-0.84-0.474-1.581-0.675-2.557-2.701c-1.102-2.287-0.138-4.502-0.138-4.502s2.721-5.524,4.587-9.679
		c1.483-3.303,4.391-3.642,5.521-3.642c0.292,0,0.466,0.023,0.466,0.023s13.685,1.385,20.665,1.939
		c0.302,0.024,0.595,0.036,0.879,0.036c6.269,0,8.058-5.681,7-9.525c-1.106-4.017-4.769-4.987-4.769-4.987
		s-11.611-2.286-13.201-2.632c-1.59-0.346-2.695-1.039-3.525-2.216c-0.829-1.177-0.649-1.331-1.037-2.995
		c-0.272-1.168-0.09-1.932-1.935-4.346c-1.693-2.216-6.773-3.394-6.773-3.394s-27.162-8.069-31.343-9.35
		C32.548,0.089,31.932,0,31.331,0L31.331,0z"/>
</g>
</svg>
