<?xml version="1.0" encoding="utf-8"?>
<!-- Generator: Adobe Illustrator 17.1.0, SVG Export Plug-In . SVG Version: 6.00 Build 0)  -->
<!DOCTYPE svg PUBLIC "-//W3C//DTD SVG 1.1//EN" "http://www.w3.org/Graphics/SVG/1.1/DTD/svg11.dtd">
<svg version="1.1" id="Layer_1" xmlns="http://www.w3.org/2000/svg" xmlns:xlink="http://www.w3.org/1999/xlink" x="0px" y="0px"
	 viewBox="0 0 24 24" enable-background="new 0 0 24 24" xml:space="preserve">
<path fill="#3C5A99" d="M22.5,0h-21C0.672,0,0,0.672,0,1.5v21C0,23.328,0.672,24,1.5,24h10.782v-9.114h-1.833V11.8h1.833V9.276
	c0-0.463-0.093-3.551,3.86-3.551h2.791v3.212h-2.052c-0.406,0-0.817,0.425-0.817,0.74v2.11h2.864
	c-0.115,1.618-0.35,3.098-0.35,3.098H16.05V24h6.45c0.828,0,1.5-0.672,1.5-1.5v-21C24,0.672,23.328,0,22.5,0z"/>
</svg>
