<?xml version="1.0" encoding="utf-8"?>
<!-- Generator: Adobe Illustrator 17.0.2, SVG Export Plug-In . SVG Version: 6.00 Build 0)  -->
<!DOCTYPE svg PUBLIC "-//W3C//DTD SVG 1.1//EN" "http://www.w3.org/Graphics/SVG/1.1/DTD/svg11.dtd">
<svg version="1.1" id="Layer_1" xmlns="http://www.w3.org/2000/svg" xmlns:xlink="http://www.w3.org/1999/xlink" x="0px" y="0px"
	 width="166.158px" height="31.35px" viewBox="0 0 166.158 31.35" enable-background="new 0 0 166.158 31.35" xml:space="preserve">
<g>
	<g>
		<path fill="#FFFFFF" d="M27.396,20.488c0-4.326,0-21.142,0-21.142H2.563L0,0.864V31.35h26.23v-2.72H30
			C30,28.63,27.396,26.536,27.396,20.488z M24.505,29.622H1.725V1.85l0.838-0.496v20.123c0,6.666,2.604,7.154,2.604,7.154h19.338
			L24.505,29.622z M5.566,26.903c-0.117-0.104-0.314-0.325-0.52-0.753c-0.311-0.647-0.674-1.842-0.744-3.933l-0.014-0.74V5.554
			h21.383v4.813l0.021,11.849c0.078,1.821,0.377,3.39,0.894,4.686H5.566z"/>
	</g>
</g>
<g>
	<path fill="#FFFFFF" d="M46.431,8.997c0.193,0.015,0.377,0.038,0.549,0.067c0.172,0.03,0.355,0.045,0.55,0.045
		c0.119,0,0.242-0.007,0.37-0.022c0.127-0.015,0.258-0.022,0.393-0.022c0.074,0,0.142,0.004,0.201,0.011
		c0.06,0.008,0.127,0.019,0.202,0.034c0.09-0.03,0.172-0.045,0.246-0.045h0.18c0.104,0,0.202-0.007,0.292-0.022
		c0.09-0.015,0.193-0.022,0.313-0.022c0.119,0,0.231,0.011,0.337,0.034c0.104,0.022,0.209,0.034,0.313,0.034
		s0.209-0.007,0.314-0.022c0.104-0.015,0.201-0.022,0.291-0.022c0.074,0,0.149,0.011,0.225,0.034
		c0.074,0.022,0.149,0.034,0.224,0.034c0.21,0,0.415-0.015,0.617-0.045c0.201-0.03,0.415-0.045,0.639-0.045h0.157
		c0.06,0.06,0.138,0.094,0.235,0.101c0.097,0.008,0.198,0.015,0.303,0.022c0.104,0.008,0.198,0.026,0.28,0.056
		c0.082,0.03,0.138,0.097,0.168,0.202c0.045,0.075,0.06,0.161,0.045,0.258c-0.015,0.098,0.008,0.184,0.067,0.258
		c0.015,0.03,0.022,0.083,0.022,0.157s-0.008,0.146-0.022,0.213S53.92,10.425,53.92,10.5s0.019,0.165,0.057,0.269
		c0.037,0.104,0.056,0.239,0.056,0.403c0,0.12-0.008,0.247-0.022,0.381s-0.022,0.269-0.022,0.404c0,0.089,0.008,0.183,0.022,0.28
		s0.053,0.183,0.112,0.258c-0.06,0.045-0.123,0.131-0.19,0.258c-0.067,0.127-0.109,0.206-0.124,0.235
		c-0.134,0.075-0.246,0.139-0.336,0.191s-0.239,0.078-0.448,0.078c-0.135,0-0.255-0.022-0.359-0.067
		c-0.09,0.015-0.19,0.03-0.303,0.044c-0.112,0.015-0.221,0.022-0.325,0.022c-0.149,0-0.28-0.026-0.393-0.078
		c-0.111-0.052-0.221-0.079-0.324-0.079c-0.329,0-0.576,0.094-0.74,0.28c-0.165,0.187-0.247,0.452-0.247,0.796
		c0,0.06,0.022,0.124,0.067,0.191s0.067,0.138,0.067,0.213c0,0.075-0.016,0.138-0.045,0.19c-0.03,0.053-0.045,0.116-0.045,0.191
		c0,0.104,0.022,0.19,0.067,0.258s0.067,0.146,0.067,0.235S50.5,15.65,50.477,15.77c-0.022,0.12-0.033,0.217-0.033,0.292
		c0,0.105,0.022,0.198,0.067,0.28c0.045,0.083,0.067,0.184,0.067,0.303c0,0.075-0.008,0.157-0.022,0.247
		c-0.016,0.09-0.022,0.172-0.022,0.247c0,0.134,0.007,0.269,0.022,0.403c0.015,0.135,0.022,0.27,0.022,0.403
		c0,0.061-0.008,0.116-0.022,0.169c-0.016,0.052-0.022,0.101-0.022,0.146c0,0.03,0.007,0.075,0.022,0.135
		c0.015,0.06,0.022,0.119,0.022,0.179c0,0.075-0.008,0.146-0.022,0.214c-0.016,0.066-0.022,0.138-0.022,0.213
		c0,0.09,0.007,0.176,0.022,0.258c0.015,0.082,0.022,0.16,0.022,0.235s-0.008,0.135-0.022,0.18c0,0.119,0.003,0.235,0.011,0.348
		c0.008,0.111,0.012,0.228,0.012,0.347c-0.03,0.03-0.045,0.098-0.045,0.202c0,0.09,0.007,0.172,0.022,0.247
		c0.015,0.074,0.022,0.164,0.022,0.269c0,0.075-0.016,0.157-0.045,0.247c0.029,0.12,0.045,0.231,0.045,0.336
		c0,0.12-0.008,0.229-0.022,0.325c-0.016,0.098-0.022,0.198-0.022,0.303c0,0.149,0.007,0.292,0.022,0.427
		c0.015,0.134,0.022,0.276,0.022,0.426c0,0.12-0.022,0.202-0.067,0.246c-0.045,0.045-0.067,0.128-0.067,0.247
		c0,0.12,0.007,0.229,0.022,0.325c0.015,0.098,0.022,0.198,0.022,0.303c0,0.12-0.008,0.229-0.022,0.325
		c-0.016,0.098-0.022,0.198-0.022,0.303s0.007,0.18,0.022,0.225c0,0.074-0.037,0.111-0.112,0.111
		c-0.09,0.075-0.172,0.161-0.246,0.258c-0.075,0.098-0.173,0.146-0.292,0.146c-0.075,0-0.135-0.016-0.18-0.045
		c-0.149,0.015-0.299,0.025-0.448,0.033s-0.299,0.012-0.448,0.012c-0.448,0-0.894-0.012-1.335-0.034
		c-0.44-0.022-0.878-0.033-1.312-0.033c-0.12-0.075-0.231-0.168-0.336-0.28c-0.105-0.112-0.188-0.235-0.247-0.37
		c0.03-0.149,0.053-0.311,0.067-0.482S45.6,24.089,45.6,23.91c0-0.748-0.022-1.447-0.067-2.097c-0.045-0.65-0.067-1.335-0.067-2.053
		c0-0.148,0.008-0.291,0.022-0.426s0.022-0.276,0.022-0.426c0-0.09-0.008-0.183-0.022-0.28s-0.022-0.198-0.022-0.303
		c0-0.12,0.008-0.243,0.022-0.37s0.022-0.25,0.022-0.37c0-0.104-0.008-0.187-0.022-0.246c0.015-0.045,0.026-0.086,0.034-0.124
		c0.007-0.037,0.011-0.078,0.011-0.123c0-0.06-0.011-0.116-0.033-0.169c-0.022-0.052-0.034-0.115-0.034-0.19
		s0.008-0.157,0.022-0.247c0.015-0.09,0.022-0.18,0.022-0.269c0-0.06-0.015-0.149-0.045-0.269c0.075,0,0.12-0.09,0.135-0.27
		c0.015-0.179,0.022-0.344,0.022-0.493c0-0.104-0.004-0.202-0.012-0.292c-0.007-0.09-0.011-0.172-0.011-0.247
		c0.029-0.045,0.056-0.093,0.078-0.146c0.022-0.052,0.034-0.108,0.034-0.168c0-0.104-0.012-0.221-0.034-0.348
		s-0.06-0.247-0.111-0.359c-0.053-0.112-0.12-0.205-0.202-0.28c-0.082-0.075-0.184-0.112-0.303-0.112
		c-0.18,0-0.385,0.008-0.617,0.022c-0.231,0.015-0.459,0.022-0.684,0.022c-0.135,0-0.295,0-0.482,0
		c-0.187,0-0.362-0.003-0.526-0.011c-0.165-0.007-0.311-0.026-0.438-0.056s-0.198-0.082-0.213-0.157
		c-0.061-0.179-0.108-0.407-0.146-0.684c-0.037-0.276-0.048-0.519-0.033-0.729c0-0.18,0.022-0.351,0.067-0.516
		c-0.03-0.06-0.045-0.149-0.045-0.269c0-0.075,0.004-0.157,0.011-0.247c0.008-0.09,0.012-0.171,0.012-0.247
		c0-0.06-0.012-0.112-0.033-0.157c-0.022-0.044-0.034-0.097-0.034-0.157c0-0.12,0.026-0.213,0.078-0.28
		c0.053-0.067,0.079-0.161,0.079-0.28V9.378c0.074-0.134,0.18-0.22,0.313-0.258c0.135-0.037,0.284-0.056,0.449-0.056h0.516
		c0.149,0,0.261-0.007,0.336-0.022c0.03,0,0.049,0.004,0.057,0.011c0.007,0.008,0.025,0.011,0.056,0.011
		c0.104,0,0.198-0.019,0.28-0.056c0.082-0.037,0.176-0.056,0.28-0.056c0.074,0,0.157,0.007,0.247,0.022
		c0.089,0.015,0.171,0.022,0.246,0.022c0.194,0,0.382-0.015,0.561-0.044c0.18-0.03,0.352-0.045,0.516-0.045
		C46.094,8.908,46.266,8.938,46.431,8.997z M44.524,12.585c-0.016-0.015-0.053-0.022-0.112-0.022s-0.09,0.022-0.09,0.067
		c0,0.03,0.022,0.045,0.067,0.045C44.479,12.675,44.524,12.645,44.524,12.585z M46.049,12.652c-0.03-0.074-0.094-0.112-0.19-0.112
		c-0.098,0-0.19-0.007-0.28-0.022c-0.075,0.015-0.112,0.097-0.112,0.247c0.015,0.06,0.067,0.09,0.157,0.09h0.112h0.067
		c0.074,0,0.127-0.026,0.156-0.079C45.989,12.724,46.018,12.683,46.049,12.652z M46.071,11.8c0.015-0.015,0.022-0.037,0.022-0.067
		c0-0.015-0.015-0.022-0.045-0.022h-0.09c-0.045,0-0.067-0.015-0.067-0.045c-0.104,0.03-0.156,0.067-0.156,0.112
		c0,0.03,0.022,0.053,0.067,0.067C45.922,11.845,46.012,11.831,46.071,11.8z M46.856,12.496c-0.045-0.03-0.09-0.067-0.135-0.112
		s-0.104-0.067-0.18-0.067c-0.029,0-0.07,0.03-0.123,0.089c-0.053,0.06-0.078,0.105-0.078,0.135c0.015,0.015,0.022,0.03,0.022,0.045
		v0.022c0.045,0.044,0.112,0.067,0.201,0.067c0.075,0,0.143-0.003,0.202-0.011C46.826,12.656,46.856,12.6,46.856,12.496z
		 M46.654,13.325c-0.015-0.045-0.037-0.067-0.067-0.067s-0.067,0-0.111,0c0,0.03-0.004,0.045-0.012,0.045s-0.011,0.008-0.011,0.022
		c0,0.03,0.044,0.045,0.134,0.045C46.601,13.37,46.624,13.355,46.654,13.325z M47.708,11.016c-0.029-0.015-0.056-0.019-0.078-0.011
		c-0.022,0.008-0.033-0.003-0.033-0.034c-0.135,0-0.251,0.022-0.348,0.067c-0.098,0.045-0.206,0.082-0.325,0.112
		c0.029,0.075,0.112,0.112,0.246,0.112c0.135,0,0.262-0.011,0.382-0.034c0.119-0.022,0.179-0.071,0.179-0.146
		c-0.015,0-0.022-0.015-0.022-0.045V11.016z M48.358,13.774c0-0.06-0.048-0.104-0.146-0.135c-0.098-0.03-0.161-0.045-0.19-0.045
		c-0.09,0-0.161,0.034-0.213,0.101c-0.053,0.067-0.131,0.101-0.235,0.101c-0.061,0-0.128-0.019-0.202-0.056
		c-0.075-0.037-0.127-0.071-0.157-0.101c-0.03,0.015-0.078,0.019-0.146,0.011c-0.067-0.007-0.101,0.011-0.101,0.056
		c0.029,0.03,0.052,0.071,0.067,0.124c0.015,0.052,0.052,0.078,0.111,0.078h0.202c0.074,0,0.131,0.015,0.168,0.045
		c0.037,0.03,0.094,0.045,0.169,0.045c0.119,0,0.238-0.022,0.358-0.067C48.164,13.886,48.269,13.833,48.358,13.774z M47.507,14.738
		c-0.09,0.03-0.194,0.063-0.314,0.101c-0.119,0.038-0.194,0.116-0.224,0.235c0.09,0.03,0.172,0.045,0.246,0.045
		c0.104,0,0.194-0.026,0.27-0.078c0.074-0.052,0.112-0.124,0.112-0.213v-0.045h-0.045C47.521,14.783,47.507,14.768,47.507,14.738z
		 M47.462,12.383c0.015-0.015,0.022-0.037,0.022-0.067s-0.022-0.045-0.067-0.045c-0.03,0-0.053,0.004-0.067,0.011
		s-0.03,0.011-0.045,0.011c0,0.089,0.03,0.134,0.09,0.134v-0.022l0.022-0.022H47.462z M48.202,12.854
		c-0.105,0-0.202-0.011-0.292-0.034s-0.18-0.034-0.269-0.034c-0.045,0-0.109,0.011-0.191,0.034s-0.123,0.071-0.123,0.146
		c0,0.075,0.049,0.12,0.146,0.135c0.098,0.015,0.184,0.03,0.258,0.045c0.09-0.03,0.21-0.037,0.359-0.022
		c0.149,0.015,0.283,0.008,0.403-0.022v-0.022c0.015,0,0.022,0.004,0.022,0.011c0,0.008,0.008,0.011,0.022,0.011
		s0.022-0.015,0.022-0.045v-0.067v-0.022C48.485,12.892,48.366,12.854,48.202,12.854z M48.493,17.474
		c0.045-0.015,0.067-0.037,0.067-0.067c0-0.014-0.022-0.021-0.067-0.021s-0.078,0.004-0.101,0.011
		c-0.022,0.008-0.057,0.011-0.101,0.011H48.09c-0.045,0-0.098,0.008-0.157,0.023c-0.06,0.014-0.09,0.037-0.09,0.066
		c0,0.045,0.019,0.071,0.057,0.079c0.037,0.007,0.07,0.011,0.101,0.011c0.119,0,0.205-0.019,0.258-0.056
		S48.389,17.474,48.493,17.474z M48.313,15.949c-0.029-0.045-0.082-0.067-0.156-0.067c-0.045,0-0.09,0.008-0.135,0.022
		c-0.045,0.015-0.09,0.03-0.135,0.045c0,0.03,0.012,0.044,0.034,0.044s0.033,0.015,0.033,0.045h0.067h0.18
		C48.276,16.039,48.313,16.009,48.313,15.949z M48.247,22.116c-0.016-0.03-0.053-0.053-0.112-0.067
		c-0.061-0.015-0.075-0.022-0.045-0.022c-0.061,0-0.12,0.03-0.18,0.09c0.03,0,0.057,0.011,0.079,0.033
		c0.021,0.022,0.048,0.033,0.078,0.033C48.142,22.183,48.202,22.16,48.247,22.116z M48.292,18.977l-0.045-0.045
		c-0.03,0-0.053,0.011-0.067,0.033c-0.016,0.022-0.03,0.042-0.045,0.057c0,0.015,0.015,0.022,0.045,0.022
		c0.015,0,0.022,0.008,0.022,0.022h0.022c0.015-0.03,0.029-0.041,0.045-0.034c0.015,0.008,0.022-0.003,0.022-0.033V18.977z
		 M49.166,12.204c-0.03-0.015-0.075-0.022-0.135-0.022c-0.074,0-0.138,0.015-0.19,0.045c-0.053,0.03-0.078,0.075-0.078,0.134
		c0,0.015,0.033,0.045,0.101,0.09s0.131,0.067,0.19,0.067c0.075,0,0.12-0.022,0.135-0.067s0.037-0.097,0.067-0.157
		c-0.03,0-0.037-0.015-0.022-0.045s0.007-0.045-0.022-0.045H49.166z M49.368,11.531c0-0.045-0.022-0.067-0.067-0.067
		s-0.101,0.008-0.168,0.022c-0.067,0.015-0.102,0.053-0.102,0.112c0,0.075,0.053,0.112,0.157,0.112
		C49.278,11.711,49.338,11.651,49.368,11.531z M49.256,21.017c0.015-0.015,0.022-0.037,0.022-0.067c0-0.029-0.022-0.044-0.067-0.044
		h-0.112h-0.022c-0.015,0.029-0.022,0.074-0.022,0.134h0.022h0.112C49.219,21.039,49.24,21.032,49.256,21.017z M49.301,17.743
		c-0.016-0.03-0.038-0.045-0.067-0.045h-0.112c0,0.075,0.022,0.112,0.067,0.112S49.27,17.788,49.301,17.743z M49.256,21.869
		c-0.03,0-0.041-0.012-0.034-0.033c0.008-0.022-0.003-0.034-0.033-0.034s-0.049,0.016-0.056,0.045
		c-0.008,0.03-0.012,0.06-0.012,0.09h0.045h0.067c0.015,0,0.022-0.008,0.022-0.022V21.869z M49.368,10.275v-0.022
		c0-0.045-0.022-0.067-0.067-0.067c-0.016,0-0.022,0.015-0.022,0.044c0,0.045,0.015,0.067,0.045,0.067
		C49.338,10.298,49.352,10.291,49.368,10.275z M49.569,13.146c-0.015-0.03-0.037-0.045-0.066-0.045
		c-0.045,0-0.067,0.008-0.067,0.022c0,0.06,0.015,0.09,0.045,0.09C49.54,13.213,49.569,13.191,49.569,13.146z M50.512,12.024V11.98
		c0-0.03-0.016-0.045-0.045-0.045c-0.03,0-0.053,0.004-0.067,0.011c-0.015,0.008-0.037,0.011-0.067,0.011s-0.045-0.007-0.045-0.022
		c-0.09,0.06-0.135,0.104-0.135,0.134c0.016,0.015,0.022,0.03,0.022,0.045c0.03-0.03,0.082-0.045,0.157-0.045
		S50.467,12.055,50.512,12.024z"/>
	<path fill="#FFFFFF" d="M62.957,9.087c0.254,0.015,0.486,0.042,0.695,0.079c0.209,0.038,0.44,0.056,0.695,0.056
		c0.09,0.03,0.198,0.052,0.325,0.067c0.127,0.015,0.235,0.037,0.325,0.067c0.06,0.075,0.19,0.146,0.393,0.213
		c0.201,0.067,0.34,0.101,0.415,0.101c0.164,0.105,0.332,0.225,0.504,0.359c0.172,0.135,0.317,0.262,0.438,0.381
		c0.313,0.314,0.471,0.501,0.471,0.561c0.045,0.12,0.112,0.213,0.202,0.28s0.172,0.146,0.246,0.235
		c0.075,0.314,0.184,0.617,0.325,0.908c0.143,0.292,0.214,0.58,0.214,0.863c0,0.12-0.008,0.243-0.022,0.37
		c-0.016,0.127-0.022,0.25-0.022,0.37c0,0.105,0.015,0.202,0.045,0.292c0.029,0.09,0.045,0.187,0.045,0.292
		c0,0.075-0.016,0.157-0.045,0.247c-0.03,0.09-0.045,0.18-0.045,0.269c0,0.045,0.015,0.094,0.045,0.146
		c0.029,0.052,0.045,0.086,0.045,0.101c0,0.075-0.03,0.179-0.09,0.313c-0.061,0.135-0.105,0.247-0.135,0.336v0.067
		c0,0.165-0.049,0.292-0.146,0.381c-0.098,0.09-0.161,0.217-0.191,0.381c-0.029,0.179-0.108,0.321-0.235,0.426
		c-0.127,0.104-0.25,0.217-0.37,0.336c-0.089,0.194-0.224,0.352-0.403,0.471c-0.18,0.12-0.366,0.225-0.561,0.314
		s-0.385,0.179-0.571,0.269c-0.188,0.09-0.341,0.194-0.46,0.314c-0.03,0.03-0.045,0.067-0.045,0.112
		c0,0.164,0.082,0.403,0.246,0.717c0.165,0.314,0.359,0.546,0.583,0.695c0.045,0.12,0.09,0.235,0.135,0.348s0.104,0.213,0.18,0.303
		c0.104,0.045,0.18,0.116,0.225,0.213c0.045,0.098,0.119,0.184,0.224,0.258c0.075,0.03,0.127,0.075,0.157,0.135
		c0.029,0.061,0.052,0.123,0.067,0.19c0.015,0.067,0.033,0.135,0.056,0.202s0.079,0.108,0.168,0.123
		c0.06,0.075,0.131,0.132,0.214,0.169c0.082,0.037,0.13,0.115,0.146,0.235c0.194,0.344,0.385,0.609,0.571,0.796
		c0.188,0.187,0.34,0.385,0.46,0.594c0.06,0.105,0.101,0.214,0.123,0.325c0.022,0.112,0.079,0.206,0.169,0.28
		c0.045,0.061,0.09,0.116,0.134,0.169c0.045,0.052,0.067,0.123,0.067,0.213c0,0.135-0.074,0.254-0.224,0.358
		s-0.277,0.194-0.382,0.27c-0.09,0-0.176,0.003-0.258,0.011s-0.168,0.012-0.258,0.012c-0.419,0-0.826-0.016-1.222-0.045
		c-0.396-0.03-0.804-0.045-1.223-0.045c-0.149,0.029-0.262,0.045-0.336,0.045c-0.165,0-0.329-0.012-0.493-0.034
		c-0.165-0.022-0.329-0.033-0.494-0.033c-0.134-0.03-0.262-0.098-0.381-0.202c-0.12-0.104-0.229-0.217-0.325-0.336
		c-0.098-0.12-0.18-0.235-0.246-0.348c-0.067-0.112-0.102-0.19-0.102-0.235c0-0.104-0.026-0.19-0.078-0.258
		c-0.053-0.067-0.104-0.131-0.157-0.191c-0.053-0.06-0.104-0.126-0.157-0.201c-0.052-0.075-0.078-0.164-0.078-0.27v-0.09
		c-0.075-0.104-0.153-0.197-0.235-0.28c-0.082-0.082-0.123-0.205-0.123-0.37c-0.165-0.148-0.284-0.325-0.359-0.526
		c-0.075-0.202-0.194-0.385-0.358-0.55c-0.03-0.074-0.049-0.146-0.057-0.213s-0.041-0.131-0.101-0.19
		c-0.03-0.075-0.063-0.131-0.101-0.168c-0.038-0.037-0.057-0.102-0.057-0.191c-0.045-0.074-0.078-0.156-0.101-0.246
		s-0.094-0.142-0.213-0.157c-0.016-0.074-0.057-0.119-0.124-0.135c-0.066-0.015-0.115-0.06-0.146-0.134
		c0.015-0.015,0.03-0.03,0.045-0.045s0.022-0.045,0.022-0.09s-0.015-0.067-0.045-0.067c-0.12,0-0.213,0.045-0.28,0.135
		s-0.161,0.134-0.28,0.134c-0.165,0-0.272-0.048-0.325-0.146c-0.053-0.097-0.116-0.146-0.19-0.146c-0.045,0-0.09,0.022-0.135,0.067
		c0.03,0.075,0.082,0.135,0.157,0.18c0.074,0.044,0.112,0.149,0.112,0.313c0.06,0.06,0.156,0.09,0.291,0.09
		c0.104,0,0.18-0.015,0.225-0.045c0.074,0.06,0.112,0.149,0.112,0.27c0,0.06-0.004,0.134-0.012,0.224s-0.071,0.135-0.19,0.135
		h-0.225c-0.104,0-0.156,0.037-0.156,0.112c0,0.045,0.019,0.071,0.056,0.078c0.037,0.008,0.063,0.026,0.078,0.057
		c0.03,0,0.063-0.004,0.102-0.012c0.037-0.007,0.07-0.011,0.101-0.011c0.075,0,0.135,0.029,0.18,0.089v0.067
		c0,0.03,0.003,0.057,0.011,0.079s0.012,0.049,0.012,0.078c0,0.06-0.004,0.112-0.012,0.157s-0.011,0.09-0.011,0.135
		c0,0.044,0.007,0.082,0.022,0.111v0.18c0,0.194,0.019,0.381,0.056,0.561s0.071,0.352,0.102,0.516
		c-0.03,0.016-0.045,0.045-0.045,0.09c0.06,0.075,0.089,0.188,0.089,0.337c0,0.089-0.007,0.168-0.022,0.235
		c-0.015,0.067-0.021,0.138-0.021,0.213v0.313c0,0.314-0.112,0.568-0.337,0.763c-0.104,0.104-0.254,0.164-0.448,0.18
		c-0.194,0.015-0.359,0.022-0.493,0.022c-0.105,0-0.217-0.016-0.337-0.045c-0.149,0.015-0.295,0.022-0.438,0.022
		c-0.142,0-0.288,0-0.437,0c-0.15,0-0.296,0-0.438,0c-0.143,0-0.28-0.008-0.415-0.022c-0.12,0.029-0.21,0.045-0.27,0.045
		c-0.164,0-0.317-0.034-0.459-0.102c-0.143-0.066-0.273-0.138-0.393-0.213c-0.12-0.015-0.184-0.074-0.19-0.179
		c-0.008-0.104-0.026-0.194-0.057-0.27c0.03-0.029,0.041-0.067,0.034-0.112c-0.008-0.045,0.003-0.082,0.033-0.112
		c-0.03-0.074-0.053-0.168-0.067-0.28c-0.015-0.111-0.022-0.22-0.022-0.325c0-0.148,0.012-0.291,0.034-0.426
		s0.033-0.269,0.033-0.403c0-0.045-0.004-0.086-0.011-0.124c-0.008-0.037-0.012-0.078-0.012-0.123c0.06-0.104,0.09-0.217,0.09-0.336
		c0-0.09-0.004-0.176-0.011-0.258c-0.008-0.082-0.012-0.161-0.012-0.235c0-0.149,0.022-0.255,0.067-0.314
		c-0.03-0.029-0.045-0.097-0.045-0.202v-0.156c0-0.06-0.008-0.112-0.022-0.157s-0.022-0.09-0.022-0.135
		c0-0.074,0.012-0.149,0.034-0.225c0.022-0.074,0.033-0.148,0.033-0.224c-0.015-0.075-0.026-0.157-0.033-0.247
		c-0.008-0.09-0.012-0.179-0.012-0.269c0-0.104,0.004-0.202,0.012-0.292c0.007-0.09,0.019-0.172,0.033-0.246
		c-0.015-0.075-0.026-0.149-0.033-0.225c-0.008-0.074-0.012-0.149-0.012-0.225c0-0.074,0.004-0.146,0.012-0.213
		c0.007-0.067,0.019-0.138,0.033-0.213c-0.045-0.104-0.067-0.231-0.067-0.381c0-0.104,0.008-0.21,0.022-0.314
		s0.022-0.217,0.022-0.336c0-0.075-0.011-0.149-0.033-0.225c-0.022-0.074-0.034-0.142-0.034-0.201c0-0.105,0.026-0.202,0.079-0.292
		c0.052-0.09,0.078-0.172,0.078-0.247c0-0.06-0.022-0.112-0.067-0.157s-0.067-0.104-0.067-0.179c0-0.12,0.008-0.232,0.022-0.336
		s0.022-0.217,0.022-0.336c0-0.075-0.011-0.146-0.033-0.213s-0.034-0.138-0.034-0.213c0-0.074,0.019-0.146,0.057-0.213
		c0.037-0.067,0.056-0.138,0.056-0.213c0-0.045-0.019-0.097-0.056-0.157c-0.038-0.06-0.057-0.126-0.057-0.202
		c0-0.12,0.019-0.216,0.057-0.292c0.037-0.075,0.056-0.157,0.056-0.247c0-0.045-0.015-0.097-0.045-0.157
		c-0.03-0.06-0.045-0.119-0.045-0.179c0-0.104,0.019-0.206,0.057-0.303c0.037-0.097,0.056-0.198,0.056-0.303
		c0-0.149-0.019-0.284-0.056-0.404c-0.038-0.119-0.057-0.239-0.057-0.359c0-0.119,0.03-0.239,0.09-0.358
		c-0.015-0.06-0.033-0.116-0.056-0.168c-0.022-0.052-0.034-0.108-0.034-0.168c0-0.075,0.012-0.138,0.034-0.191
		c0.022-0.052,0.033-0.101,0.033-0.146c0-0.06-0.011-0.12-0.033-0.18c-0.022-0.06-0.034-0.126-0.034-0.202
		c0-0.12,0.012-0.235,0.034-0.348c0.022-0.112,0.033-0.228,0.033-0.348v-0.157c0.03-0.09,0.056-0.183,0.078-0.28
		s0.034-0.198,0.034-0.303c0.104-0.224,0.287-0.336,0.549-0.336S57,9.14,57.239,9.109c0.09,0.03,0.194,0.042,0.313,0.034
		c0.12-0.007,0.225,0.004,0.314,0.034c0.09-0.015,0.187-0.026,0.291-0.034c0.104-0.007,0.217-0.011,0.337-0.011
		c0.283,0,0.553,0.011,0.807,0.034s0.509,0.034,0.763,0.034c0.149,0,0.295-0.007,0.438-0.022c0.142-0.015,0.287-0.022,0.438-0.022
		h0.336c0.149,0,0.276-0.03,0.381-0.09h0.157c0.135,0,0.266-0.007,0.393-0.022c0.127-0.015,0.25-0.022,0.37-0.022
		C62.695,9.02,62.823,9.042,62.957,9.087z M58.091,15.187c0-0.015,0.004-0.03,0.012-0.045c0.007-0.015,0.011-0.03,0.011-0.045
		c0-0.03-0.03-0.045-0.09-0.045H57.89c-0.03,0-0.053-0.007-0.067-0.022c-0.045,0.03-0.102,0.06-0.168,0.089
		c-0.067,0.03-0.116,0.083-0.146,0.157c0.03,0.06,0.075,0.089,0.135,0.089s0.119,0,0.18,0c0.045-0.03,0.093-0.056,0.146-0.078
		C58.019,15.265,58.06,15.231,58.091,15.187z M58.113,16.936c-0.074-0.045-0.142-0.067-0.201-0.067
		c-0.045,0-0.067,0.015-0.067,0.045s0.015,0.038,0.045,0.022c0.029-0.015,0.045-0.008,0.045,0.022h0.022h0.111
		C58.099,16.958,58.113,16.951,58.113,16.936z M58.473,18.326c-0.061-0.09-0.172-0.135-0.337-0.135
		c-0.015,0.015-0.053,0.033-0.112,0.056s-0.089,0.049-0.089,0.079s0.041,0.06,0.123,0.09s0.138,0.045,0.168,0.045
		c0.015,0,0.057-0.015,0.123-0.045C58.416,18.386,58.457,18.356,58.473,18.326z M58.428,21.286c-0.12-0.06-0.21-0.09-0.27-0.09
		c-0.03,0-0.09,0.016-0.179,0.045c0,0.09,0.007,0.135,0.021,0.135l0.022-0.022l0.067,0.045h0.045
		C58.285,21.398,58.383,21.361,58.428,21.286z M58.495,13.684c-0.03-0.015-0.064-0.034-0.102-0.056s-0.078-0.034-0.123-0.034
		c-0.03,0-0.078,0.015-0.146,0.045c-0.067,0.03-0.102,0.067-0.102,0.112c0.06,0.03,0.12,0.049,0.18,0.056s0.112,0.026,0.157,0.056
		l0.045-0.044c0.015,0,0.022,0.003,0.022,0.011c0,0.007,0.007,0.011,0.022,0.011c0.029,0,0.045-0.019,0.045-0.056
		S58.495,13.714,58.495,13.684z M58.606,12.406c0.016-0.015,0.022-0.037,0.022-0.067c0-0.015-0.015-0.022-0.044-0.022
		c-0.03,0-0.053,0.003-0.067,0.011c-0.016,0.008-0.03,0.011-0.045,0.011c-0.03,0-0.053-0.007-0.067-0.022
		c-0.03,0.03-0.057,0.052-0.079,0.067c-0.022,0.015-0.033,0.045-0.033,0.09v0.022h0.045h0.135
		C58.547,12.496,58.592,12.466,58.606,12.406z M58.428,19.783H58.36c-0.045,0-0.067,0.022-0.067,0.067
		c0.015,0,0.037-0.003,0.067-0.011C58.39,19.832,58.412,19.813,58.428,19.783z M59.392,18.685c-0.015-0.029-0.033-0.067-0.056-0.112
		s-0.057-0.066-0.102-0.066c-0.06,0.074-0.138,0.142-0.235,0.201c-0.097,0.061-0.198,0.12-0.303,0.18
		c-0.119,0.06-0.246,0.12-0.381,0.18c0,0.029,0.033,0.052,0.101,0.066c0.067,0.016,0.116,0.022,0.146,0.022
		c0.119,0,0.231-0.044,0.336-0.134s0.217-0.135,0.336-0.135c0.06,0,0.108,0.022,0.146,0.067c0.037,0.045,0.074,0.09,0.112,0.135
		c0.037,0.044,0.081,0.089,0.134,0.134s0.131,0.067,0.235,0.067c0.075,0,0.146-0.003,0.214-0.011
		c0.066-0.008,0.123-0.012,0.168-0.012h0.045c0.074,0,0.156-0.06,0.246-0.179c0-0.104-0.06-0.161-0.179-0.169
		c-0.12-0.007-0.251-0.011-0.393-0.011c-0.143,0-0.273-0.008-0.393-0.022C59.451,18.872,59.392,18.805,59.392,18.685z
		 M58.853,20.613c-0.03-0.06-0.071-0.097-0.123-0.112c-0.053-0.015-0.116-0.022-0.19-0.022c-0.09,0-0.135,0.022-0.135,0.067
		c0,0.03,0.029,0.057,0.09,0.079c0.06,0.021,0.097,0.048,0.111,0.078c0.03-0.03,0.079-0.034,0.146-0.012s0.101,0.012,0.101-0.033
		V20.613z M59.392,15.299c-0.015-0.015-0.022-0.03-0.022-0.045c0-0.015-0.015-0.022-0.045-0.022h-0.022
		c-0.03-0.015-0.074-0.022-0.134-0.022c-0.061,0-0.112,0.008-0.157,0.022c-0.045,0.015-0.098,0.03-0.157,0.045h-0.045
		c-0.015,0-0.022,0.008-0.022,0.022v0.067v0.022c0.015,0.045,0.067,0.067,0.157,0.067c0.074,0,0.164-0.011,0.269-0.034
		S59.377,15.358,59.392,15.299z M59.257,17.811c0-0.015-0.029-0.03-0.089-0.045c-0.061-0.015-0.105-0.022-0.135-0.022
		c-0.03,0-0.075,0.008-0.135,0.022s-0.09,0.053-0.09,0.112c0,0.029,0.053,0.044,0.157,0.044
		C59.1,17.922,59.197,17.885,59.257,17.811z M59.078,17.025c-0.016-0.029-0.038-0.045-0.067-0.045h-0.09h-0.022
		c0,0.075,0.029,0.112,0.09,0.112C59.048,17.093,59.078,17.07,59.078,17.025z M59.324,12.854c0-0.045-0.03-0.067-0.09-0.067h-0.089
		H59.1c0,0.03-0.012,0.049-0.034,0.056c-0.022,0.008-0.033,0.026-0.033,0.056v0.022c0.015,0.015,0.029,0.022,0.045,0.022
		c0.029-0.03,0.078-0.033,0.146-0.011C59.291,12.955,59.324,12.929,59.324,12.854z M59.279,20.86
		c-0.029-0.015-0.056-0.03-0.078-0.045s-0.041-0.022-0.056-0.022c-0.061,0-0.09,0.037-0.09,0.112c0,0.044,0.022,0.074,0.067,0.089
		c0.045,0.016,0.082,0.03,0.111,0.045c0.03,0,0.045-0.029,0.045-0.09V20.86z M59.436,11.935c-0.03-0.015-0.063-0.03-0.101-0.045
		c-0.038-0.015-0.079-0.022-0.124-0.022c-0.074,0-0.111,0.022-0.111,0.067c0,0.03,0.029,0.06,0.09,0.089
		c0.06,0.03,0.111,0.045,0.156,0.045c0.075,0,0.112-0.022,0.112-0.067V11.98C59.444,11.965,59.436,11.95,59.436,11.935z
		 M59.481,13.707v-0.045c0-0.015,0.008-0.022,0.022-0.022l-0.022-0.045c-0.03,0-0.06,0.015-0.09,0.045
		c-0.03,0.03-0.053,0.045-0.067,0.045h-0.045c-0.029,0-0.037,0.011-0.022,0.034s0.015,0.042,0,0.056
		C59.347,13.744,59.422,13.722,59.481,13.707z M60.356,18.057v-0.067c-0.105,0.03-0.258,0.049-0.46,0.057s-0.303,0.049-0.303,0.123
		c0,0.075,0.048,0.131,0.146,0.168c0.097,0.038,0.16,0.057,0.19,0.057s0.057-0.004,0.079-0.012c0.022-0.007,0.056-0.011,0.101-0.011
		h0.09c0.074-0.075,0.127-0.116,0.157-0.124c0.029-0.007,0.045-0.048,0.045-0.123C60.401,18.095,60.386,18.072,60.356,18.057z
		 M60.289,16.644c-0.075-0.045-0.153-0.06-0.235-0.045c-0.083,0.015-0.154,0.008-0.214-0.022v-0.022h-0.044
		c-0.075,0-0.112,0.015-0.112,0.044l0.022,0.022v0.045c0,0.03,0.045,0.056,0.134,0.079c0.09,0.022,0.149,0.034,0.18,0.034
		C60.169,16.779,60.259,16.734,60.289,16.644z M60.177,11.486c-0.03-0.03-0.09-0.045-0.18-0.045c-0.104,0-0.157,0.022-0.157,0.067
		c0.045,0.06,0.112,0.09,0.202,0.09c0.015,0,0.041,0,0.078,0c0.038,0,0.057-0.022,0.057-0.067V11.486z M62.105,12.787
		c-0.165-0.075-0.37-0.101-0.617-0.079c-0.246,0.022-0.46,0.011-0.639-0.034c-0.135,0.045-0.273,0.12-0.415,0.225
		c-0.143,0.104-0.213,0.247-0.213,0.426c0,0.045,0.003,0.09,0.011,0.135s0.019,0.097,0.034,0.157v0.269v0.718
		c0,0.09,0,0.179,0,0.269s-0.008,0.187-0.022,0.292c0,0.045,0.003,0.094,0.011,0.146s0.012,0.116,0.012,0.19
		c0,0.075-0.008,0.157-0.022,0.247c-0.016,0.09-0.022,0.172-0.022,0.247c0,0.075,0.022,0.143,0.067,0.202s0.067,0.127,0.067,0.202
		v0.067c0,0.075,0.078,0.138,0.235,0.19c0.156,0.053,0.317,0.079,0.481,0.079h0.494h0.224c0.09-0.06,0.198-0.108,0.325-0.146
		c0.127-0.037,0.254-0.078,0.382-0.123c0.126-0.045,0.238-0.093,0.336-0.146c0.097-0.052,0.16-0.13,0.19-0.235
		c0.209-0.12,0.352-0.288,0.426-0.504c0.075-0.217,0.112-0.46,0.112-0.729v-0.336c0.045-0.045,0.067-0.104,0.067-0.179
		c0-0.209-0.063-0.374-0.19-0.494c-0.127-0.119-0.206-0.247-0.235-0.381c-0.09-0.06-0.168-0.127-0.235-0.202
		c-0.067-0.074-0.146-0.134-0.235-0.179c-0.09-0.075-0.188-0.131-0.292-0.168C62.337,12.873,62.225,12.832,62.105,12.787z
		 M60.76,12.024v-0.022c0-0.015-0.008-0.022-0.022-0.022s-0.022,0.004-0.022,0.011s-0.008,0.011-0.022,0.011h-0.045
		C60.647,12.017,60.684,12.024,60.76,12.024z M61.185,18.797c-0.09-0.029-0.153-0.082-0.19-0.157
		c-0.037-0.074-0.108-0.112-0.213-0.112c-0.03,0.03-0.045,0.075-0.045,0.135c0,0.061,0.078,0.149,0.235,0.27
		s0.258,0.194,0.303,0.224c0.045-0.029,0.097-0.037,0.157-0.022c0.06,0.016,0.104,0,0.135-0.044h0.045h0.089
		c0.104,0.044,0.188,0.089,0.247,0.134c0.029,0.03,0.056,0.049,0.078,0.057s0.049,0.019,0.079,0.033
		c0.029,0.016,0.052,0.022,0.067,0.022c0.06,0,0.089-0.022,0.089-0.067c-0.029-0.06-0.089-0.112-0.179-0.156
		c-0.09-0.045-0.157-0.067-0.202-0.067c-0.03,0-0.053,0.004-0.067,0.011c-0.015,0.008-0.037,0.012-0.067,0.012
		c-0.06,0-0.142-0.041-0.246-0.124C61.394,18.86,61.29,18.812,61.185,18.797z M61.185,17.811c-0.045,0-0.071-0.008-0.078-0.022
		c-0.008-0.015-0.02-0.022-0.034-0.022c-0.029,0-0.052,0.008-0.066,0.022c-0.016,0.015-0.038,0.03-0.067,0.045
		c0,0.045,0.022,0.067,0.067,0.067h0.089h0.022c0-0.03,0.012-0.041,0.034-0.034c0.022,0.008,0.033-0.004,0.033-0.033V17.811z
		 M61.679,20.523c0-0.029-0.015-0.045-0.045-0.045H61.59c-0.03,0-0.053-0.007-0.067-0.022c-0.016-0.015-0.03-0.022-0.045-0.022
		c-0.016,0-0.03,0.008-0.045,0.022c-0.016,0.016-0.038,0.022-0.067,0.022h-0.022c-0.075,0.045-0.112,0.09-0.112,0.135v0.045
		c0.104,0,0.194-0.004,0.27-0.012C61.574,20.64,61.634,20.599,61.679,20.523z M61.926,19.783c-0.015-0.06-0.082-0.089-0.202-0.089
		c-0.104,0-0.156,0.029-0.156,0.089c0.029,0.03,0.041,0.061,0.033,0.09c-0.008,0.03,0.033,0.045,0.123,0.045
		C61.828,19.918,61.895,19.873,61.926,19.783z M62.621,18.506c-0.03-0.016-0.079-0.041-0.146-0.079
		c-0.067-0.037-0.146-0.074-0.236-0.112c-0.089-0.037-0.172-0.067-0.246-0.09c-0.075-0.021-0.127-0.033-0.157-0.033
		c-0.09,0-0.172,0.037-0.246,0.112c0.015,0.104,0.089,0.157,0.224,0.157c0.045,0,0.09-0.004,0.135-0.012
		c0.045-0.007,0.09-0.011,0.135-0.011c0.119,0,0.197,0.045,0.235,0.134c0.037,0.09,0.115,0.135,0.235,0.135
		c0.045,0,0.082-0.007,0.112-0.022c-0.016-0.029-0.02-0.067-0.012-0.112S62.65,18.506,62.621,18.506z M62.083,21.286
		c-0.03,0-0.045-0.012-0.045-0.034c0-0.021-0.016-0.033-0.045-0.033h-0.022h-0.022c-0.015,0-0.022-0.015-0.022-0.045
		c-0.03,0.03-0.078,0.041-0.146,0.034c-0.067-0.008-0.102,0.025-0.102,0.101c0.015,0,0.019,0.008,0.012,0.022
		c-0.008,0.015,0.003,0.022,0.033,0.022h0.045c0.03,0,0.045,0.015,0.045,0.045c0.045-0.03,0.102-0.041,0.168-0.034
		C62.049,21.372,62.083,21.346,62.083,21.286z M62.576,21.017c0-0.029-0.016-0.045-0.045-0.045c-0.045,0-0.067,0.03-0.067,0.09
		l0.022,0.022C62.517,21.069,62.546,21.047,62.576,21.017z M63.316,21.466v-0.045c-0.09,0-0.165,0.022-0.225,0.067
		s-0.104,0.089-0.135,0.134c0.015,0.016,0.045,0.022,0.09,0.022s0.09-0.022,0.135-0.067C63.226,21.533,63.271,21.495,63.316,21.466z
		 M63.137,17.115l-0.022-0.045c-0.03,0-0.056,0.012-0.078,0.033c-0.022,0.023-0.042,0.041-0.057,0.057
		C63.055,17.16,63.106,17.145,63.137,17.115z M63.54,18.371c-0.06-0.06-0.138-0.135-0.235-0.225s-0.146-0.142-0.146-0.157
		c-0.09,0-0.149,0.03-0.18,0.09c0.06,0.075,0.143,0.149,0.247,0.225s0.187,0.112,0.246,0.112
		C63.488,18.416,63.51,18.401,63.54,18.371z M64.056,12.989c-0.029-0.03-0.07-0.06-0.123-0.089s-0.101-0.045-0.146-0.045
		c-0.09,0-0.135,0.038-0.135,0.112c0,0.075,0.067,0.112,0.202,0.112c0.029,0,0.06-0.007,0.09-0.022
		C63.974,13.042,64.012,13.019,64.056,12.989z M64.325,16.846c-0.06-0.09-0.165-0.135-0.313-0.135c-0.061,0-0.098,0.008-0.112,0.022
		c-0.016,0.015-0.038,0.022-0.067,0.022h-0.045c-0.016,0-0.022,0.015-0.022,0.045c0,0.075,0.052,0.12,0.157,0.134
		c0.104,0.016,0.193,0.037,0.269,0.067c0.03-0.03,0.06-0.048,0.09-0.056s0.045-0.034,0.045-0.079V16.846z M64.235,22.744
		c0-0.045-0.019-0.06-0.056-0.045c-0.038,0.015-0.064,0-0.079-0.045c-0.029,0.03-0.063,0.045-0.101,0.045s-0.071,0.015-0.101,0.045
		c-0.016,0-0.022-0.004-0.022-0.012c0-0.007-0.008-0.011-0.022-0.011c-0.016,0-0.022,0.029-0.022,0.089
		c0.015,0.045,0.056,0.064,0.123,0.057s0.116-0.004,0.146,0.011c0.03-0.029,0.06-0.052,0.09-0.067
		C64.221,22.796,64.235,22.773,64.235,22.744z M64.415,14.985c-0.016-0.045-0.057-0.063-0.123-0.056
		c-0.067,0.008-0.116,0.004-0.146-0.011c-0.03,0.03-0.045,0.053-0.045,0.067c0,0.06,0.03,0.089,0.09,0.089s0.104-0.007,0.135-0.022
		C64.355,15.037,64.385,15.015,64.415,14.985z M64.796,14.155c-0.015,0-0.026-0.007-0.033-0.022
		c-0.008-0.015-0.026-0.022-0.057-0.022c-0.045,0-0.066-0.015-0.066-0.045l-0.045,0.022h-0.067c-0.016,0-0.022,0.004-0.022,0.011
		s-0.008,0.011-0.022,0.011c-0.016,0.015-0.03,0.022-0.045,0.022c0,0.015,0.015,0.03,0.045,0.044
		c0.029,0.015,0.045,0.038,0.045,0.067h0.045h0.134C64.766,14.245,64.796,14.215,64.796,14.155z M64.796,11.98h-0.022
		c-0.03,0-0.045-0.007-0.045-0.022c0-0.015-0.015-0.022-0.045-0.022l-0.066,0.067v0.022h0.044h0.09
		C64.781,12.024,64.796,12.01,64.796,11.98z"/>
	<path fill="#FFFFFF" d="M80.381,8.953c0.045,0,0.098-0.004,0.157-0.011S80.665,8.93,80.74,8.93c0.119,0,0.209,0.008,0.269,0.022
		c0.075-0.015,0.16-0.03,0.258-0.045c0.098-0.015,0.198-0.022,0.303-0.022s0.209,0.03,0.314,0.09
		c0.104,0.06,0.201,0.127,0.291,0.202s0.187,0.165,0.292,0.269c0.029,0.254,0.101,0.479,0.213,0.673s0.176,0.418,0.19,0.673
		c0.06,0.06,0.101,0.131,0.123,0.213s0.041,0.168,0.057,0.258c0.015,0.09,0.033,0.179,0.056,0.269s0.071,0.157,0.146,0.202
		c-0.015,0.045-0.022,0.105-0.022,0.18c0,0.165,0.057,0.288,0.169,0.37s0.168,0.213,0.168,0.392c0,0.03-0.004,0.053-0.012,0.067
		c-0.007,0.015-0.011,0.038-0.011,0.067c0.074,0.03,0.123,0.097,0.146,0.202c0.022,0.105,0.041,0.209,0.057,0.314
		c0.015,0.105,0.033,0.198,0.056,0.28c0.022,0.083,0.063,0.124,0.123,0.124c-0.015,0.03-0.022,0.075-0.022,0.134
		c0,0.135,0.041,0.24,0.124,0.314c0.082,0.075,0.131,0.172,0.146,0.292c0.09,0.15,0.138,0.325,0.146,0.527
		c0.008,0.202,0.079,0.355,0.213,0.459c0.045,0.359,0.157,0.673,0.337,0.942v0.09c0,0.03-0.004,0.06-0.012,0.089
		c-0.008,0.03-0.011,0.06-0.011,0.09c0,0.075,0.045,0.176,0.135,0.302c0.089,0.128,0.134,0.281,0.134,0.461v0.089
		c0.06,0.03,0.104,0.098,0.135,0.202s0.045,0.142,0.045,0.112c0,0.164,0.045,0.288,0.135,0.37s0.135,0.205,0.135,0.369
		c0,0.075-0.008,0.135-0.022,0.18c0.029,0.104,0.078,0.19,0.146,0.258s0.101,0.176,0.101,0.325v0.067
		c0.03,0.165,0.098,0.299,0.202,0.403c0.104,0.105,0.157,0.247,0.157,0.427c0,0.03-0.004,0.056-0.012,0.078
		s-0.011,0.049-0.011,0.078c0.09,0.105,0.16,0.232,0.213,0.382c0.052,0.149,0.101,0.307,0.146,0.471
		c0.045,0.165,0.094,0.325,0.146,0.482c0.053,0.156,0.124,0.288,0.214,0.393c0.029,0.149,0.066,0.328,0.111,0.538
		c0.045,0.209,0.127,0.366,0.247,0.471c0.045,0.075,0.074,0.161,0.09,0.258c0.015,0.098,0.029,0.198,0.045,0.303
		c0.029,0.12,0.082,0.231,0.156,0.336c0.075,0.105,0.112,0.232,0.112,0.382c0,0.135,0.037,0.239,0.112,0.313
		c0.075,0.075,0.112,0.188,0.112,0.337c-0.075,0.045-0.139,0.104-0.19,0.179c-0.053,0.075-0.102,0.15-0.146,0.225
		c-0.044,0.074-0.101,0.138-0.168,0.19s-0.153,0.079-0.258,0.079c-0.045,0-0.112-0.016-0.202-0.045l-0.021,0.022h-0.225
		c-0.21,0-0.43-0.008-0.662-0.022c-0.231-0.016-0.452-0.022-0.661-0.022c-0.165,0-0.317,0.011-0.46,0.033
		c-0.142,0.022-0.295,0.034-0.459,0.034c-0.329,0-0.64-0.042-0.931-0.124c-0.292-0.082-0.497-0.25-0.617-0.504
		c0.03-0.12,0.045-0.202,0.045-0.247c0-0.164-0.049-0.303-0.146-0.415c-0.098-0.112-0.146-0.25-0.146-0.415
		c0-0.045,0.015-0.126,0.044-0.246c0-0.12-0.044-0.205-0.134-0.258s-0.135-0.139-0.135-0.258v-0.157
		c0-0.209-0.071-0.337-0.213-0.381c-0.143-0.045-0.273-0.067-0.393-0.067h-0.314h-0.021c-0.105,0.03-0.206,0.045-0.303,0.045
		c-0.098,0-0.206,0-0.325,0c-0.345,0-0.65-0.015-0.92-0.045c-0.269-0.03-0.553-0.045-0.853-0.045
		c-0.074,0.03-0.16,0.063-0.258,0.101c-0.097,0.037-0.205,0.056-0.325,0.056c-0.164,0-0.328-0.007-0.493-0.021
		c-0.164-0.016-0.329-0.022-0.493-0.022c-0.135,0-0.266,0.004-0.393,0.011c-0.127,0.008-0.25,0.012-0.37,0.012
		c-0.119,0-0.213,0.044-0.28,0.134s-0.115,0.188-0.146,0.292s-0.06,0.254-0.09,0.448c-0.06,0.149-0.098,0.329-0.112,0.538
		c-0.015,0.21-0.074,0.352-0.179,0.426c-0.03,0.12-0.053,0.243-0.067,0.37c-0.016,0.128-0.053,0.235-0.112,0.325
		c-0.12,0.105-0.247,0.206-0.381,0.303c-0.135,0.098-0.247,0.146-0.337,0.146c-0.209,0-0.411-0.016-0.605-0.045
		c-0.194-0.03-0.321-0.045-0.381-0.045c-0.149,0-0.273,0.029-0.37,0.09c-0.098,0.06-0.221,0.089-0.37,0.089
		c-0.165,0-0.325-0.011-0.482-0.033c-0.156-0.022-0.317-0.033-0.481-0.033c-0.09,0-0.184,0.003-0.28,0.011
		c-0.098,0.008-0.199,0.012-0.303,0.012c-0.24,0-0.457-0.057-0.65-0.169c-0.195-0.112-0.292-0.272-0.292-0.481
		c0-0.225,0.034-0.393,0.101-0.505c0.067-0.112,0.102-0.25,0.102-0.415c0-0.119,0.033-0.217,0.101-0.291
		c0.067-0.075,0.101-0.172,0.101-0.292v-0.09c0.03-0.104,0.086-0.19,0.169-0.258c0.082-0.067,0.123-0.168,0.123-0.303v-0.112
		c0.104-0.344,0.198-0.598,0.28-0.762c0.082-0.165,0.149-0.292,0.202-0.382c0.052-0.09,0.093-0.16,0.123-0.213
		c0.029-0.052,0.045-0.138,0.045-0.258v-0.112c0-0.119,0.041-0.213,0.123-0.28s0.123-0.16,0.123-0.28
		c0-0.074-0.015-0.135-0.044-0.18c0.015,0,0.041-0.041,0.078-0.123s0.078-0.172,0.123-0.269c0.045-0.098,0.082-0.18,0.112-0.247
		s0.045-0.086,0.045-0.056c0.029-0.075,0.056-0.165,0.078-0.27s0.049-0.202,0.079-0.292c0.06-0.209,0.131-0.414,0.213-0.616
		s0.153-0.407,0.213-0.616c0.074-0.09,0.112-0.21,0.112-0.359c0-0.148,0.045-0.262,0.135-0.336c0.029-0.09,0.06-0.172,0.089-0.247
		c0.03-0.075,0.06-0.149,0.09-0.224c0.075-0.135,0.124-0.28,0.146-0.438c0.022-0.157,0.093-0.303,0.213-0.437v-0.067
		c0-0.194,0.048-0.351,0.146-0.471c0.097-0.12,0.153-0.27,0.168-0.449c0.06-0.06,0.104-0.134,0.135-0.224
		c0.029-0.09,0.052-0.183,0.067-0.28c0.015-0.097,0.029-0.191,0.045-0.28c0.015-0.09,0.052-0.172,0.112-0.247
		c0.045-0.044,0.074-0.16,0.089-0.347c0.016-0.187,0.067-0.31,0.157-0.37c0.12-0.149,0.183-0.329,0.19-0.538
		s0.071-0.374,0.191-0.494c0.029-0.06,0.041-0.13,0.033-0.213c-0.008-0.082,0.004-0.153,0.033-0.213
		c0.03-0.12,0.086-0.225,0.169-0.314c0.082-0.09,0.123-0.202,0.123-0.336c0.06-0.104,0.09-0.228,0.09-0.37s0.037-0.25,0.112-0.325
		c0.148-0.149,0.224-0.336,0.224-0.561V9.603c0.045-0.119,0.124-0.213,0.235-0.28c0.112-0.067,0.198-0.16,0.258-0.28
		c0.165-0.089,0.325-0.142,0.482-0.157c0.157-0.015,0.317-0.022,0.482-0.022c0.389,0,0.759,0.019,1.11,0.056
		c0.351,0.038,0.721,0.056,1.109,0.056c0.09,0,0.183,0,0.28,0S80.276,8.968,80.381,8.953z M73.362,21.6v-0.045
		c0-0.015-0.008-0.021-0.022-0.021c-0.03,0-0.049,0.003-0.057,0.011c-0.007,0.008-0.019,0.011-0.033,0.011l-0.022,0.022
		c0,0.016,0.015,0.022,0.045,0.022h0.067H73.362z M73.99,23.08c-0.045-0.03-0.094-0.067-0.146-0.112
		c-0.053-0.045-0.116-0.067-0.191-0.067c-0.06,0-0.09,0.022-0.09,0.067c0,0.075,0.034,0.131,0.102,0.168
		c0.067,0.038,0.115,0.057,0.146,0.057C73.915,23.192,73.975,23.155,73.99,23.08z M74.708,20.591c-0.03,0-0.064-0.004-0.102-0.011
		c-0.037-0.008-0.078-0.012-0.123-0.012c-0.06,0-0.09,0.016-0.09,0.045c0,0.045,0.037,0.09,0.112,0.135
		c0.074,0.045,0.164,0.082,0.269,0.112c0.104,0.029,0.214,0.056,0.325,0.078c0.112,0.022,0.198,0.033,0.259,0.033
		c0.074,0,0.148-0.029,0.224-0.089s0.112-0.127,0.112-0.202c0-0.03-0.019-0.045-0.056-0.045c-0.038,0-0.071-0.015-0.102-0.045
		c-0.149,0.03-0.284,0.045-0.403,0.045C74.999,20.636,74.856,20.621,74.708,20.591z M75.402,21.959c0-0.045-0.029-0.067-0.089-0.067
		h-0.09h-0.045c0,0.03-0.016,0.037-0.045,0.022c-0.03-0.015-0.045-0.008-0.045,0.022c0,0.015,0.007,0.03,0.022,0.045
		c-0.016,0.03-0.03,0.045-0.045,0.045c0,0.03,0.015,0.045,0.045,0.045l-0.022,0.045c0,0.029,0.015,0.044,0.045,0.044
		c0.029,0,0.082-0.015,0.157-0.044C75.365,22.086,75.402,22.034,75.402,21.959z M76.479,19.806
		c-0.075-0.089-0.173-0.134-0.292-0.134c-0.09,0-0.187,0.015-0.291,0.045c-0.105,0.029-0.195,0.06-0.27,0.089
		c0,0.045,0.045,0.087,0.135,0.124s0.194,0.056,0.313,0.056c0.104,0,0.198-0.007,0.28-0.022c0.082-0.015,0.124-0.052,0.124-0.112
		V19.806z M75.739,22.811v-0.022h-0.022l-0.022,0.022c0,0.016,0.007,0.022,0.022,0.022L75.739,22.811z M76.345,18.259
		c-0.03-0.045-0.067-0.06-0.112-0.045s-0.082,0-0.112-0.045c-0.045,0.016-0.097,0.022-0.156,0.022c-0.061,0-0.105,0.037-0.135,0.112
		c0.074,0.06,0.194,0.09,0.358,0.09c0.075,0,0.146-0.004,0.213-0.012c0.067-0.007,0.131-0.011,0.19-0.011
		C76.472,18.312,76.39,18.273,76.345,18.259z M76.21,21.981c-0.03,0-0.045-0.008-0.045-0.022s-0.015-0.022-0.045-0.022h-0.022
		h-0.022c-0.015,0-0.022-0.015-0.022-0.045h-0.045h-0.089c-0.045,0-0.075,0.022-0.09,0.067c0.029,0.015,0.056,0.03,0.078,0.045
		s0.049,0.037,0.078,0.067h0.045h0.112c0.045,0,0.067-0.015,0.067-0.045V21.981z M77.353,14.76c-0.06-0.03-0.104-0.044-0.135-0.044
		c-0.06,0-0.104,0.015-0.134,0.044c0.015,0.06,0.067,0.09,0.156,0.09h0.112h0.067c0-0.06-0.008-0.09-0.022-0.09H77.353z
		 M77.376,17.182v-0.066c0-0.029-0.015-0.045-0.045-0.045s-0.056,0.004-0.078,0.012s-0.049,0.011-0.078,0.011h-0.022
		c0,0.03-0.012,0.048-0.034,0.056s-0.033,0.026-0.033,0.057c0,0.045,0.029,0.066,0.09,0.066c0.044,0,0.081-0.011,0.111-0.033
		S77.346,17.197,77.376,17.182z M77.533,13.908c-0.03-0.045-0.067-0.071-0.112-0.078c-0.045-0.008-0.098-0.026-0.157-0.056
		c-0.029,0.03-0.063,0.045-0.101,0.045s-0.056,0.015-0.056,0.044c0,0.075,0.025,0.12,0.078,0.135
		c0.052,0.015,0.115,0.038,0.19,0.067c0.03-0.03,0.063-0.048,0.102-0.056c0.037-0.007,0.056-0.034,0.056-0.079V13.908z
		 M77.421,18.102v-0.067c0-0.045-0.03-0.067-0.09-0.067h-0.09h-0.045c-0.015,0.03-0.033,0.053-0.056,0.067
		c-0.022,0.016-0.033,0.038-0.033,0.067l0.045,0.045C77.271,18.146,77.361,18.132,77.421,18.102z M77.668,20.165
		c-0.03-0.06-0.067-0.09-0.112-0.09c0.015,0-0.004,0.004-0.057,0.011c-0.052,0.008-0.078,0.026-0.078,0.057
		c0,0.015,0.008,0.026,0.022,0.033c0.015,0.008,0.022,0.02,0.022,0.034v0.022c0.03,0,0.052,0.004,0.067,0.011
		c0.015,0.008,0.037,0.012,0.067,0.012c0.029,0,0.041-0.008,0.033-0.022S77.638,20.195,77.668,20.165z M79.597,13.684
		c-0.03-0.03-0.083-0.045-0.157-0.045c-0.194,0-0.318,0.053-0.37,0.157c-0.053,0.104-0.094,0.209-0.123,0.314v0.067
		c0,0.045-0.008,0.083-0.022,0.112c-0.016,0.03-0.03,0.067-0.045,0.112c0,0.194-0.049,0.34-0.146,0.437
		c-0.097,0.098-0.146,0.228-0.146,0.393c0,0.06,0.004,0.112,0.012,0.157c0.007,0.045,0.011,0.098,0.011,0.157
		c-0.045,0.075-0.086,0.146-0.123,0.213c-0.038,0.067-0.071,0.146-0.101,0.235v0.112c0,0.165-0.034,0.299-0.102,0.404
		s-0.123,0.217-0.168,0.336v0.112c0,0.165-0.033,0.303-0.101,0.415s-0.124,0.235-0.169,0.37c-0.029,0.075-0.056,0.16-0.078,0.258
		s-0.049,0.198-0.078,0.303c-0.03,0.12-0.061,0.239-0.09,0.358c0,0.09,0.045,0.168,0.135,0.235c0.089,0.067,0.156,0.139,0.201,0.214
		c0.075-0.016,0.146-0.022,0.213-0.022c0.067,0,0.139,0,0.214,0c0.283,0,0.549,0.025,0.796,0.078
		c0.246,0.053,0.512,0.078,0.796,0.078c0.074,0,0.153,0,0.235,0s0.168-0.015,0.258-0.045c0.045-0.045,0.108-0.074,0.19-0.089
		c0.082-0.016,0.161-0.03,0.235-0.045c0.075-0.015,0.139-0.037,0.191-0.067c0.052-0.03,0.078-0.09,0.078-0.18
		c0-0.074-0.026-0.209-0.078-0.403c-0.053-0.194-0.112-0.4-0.18-0.617s-0.139-0.418-0.213-0.605
		c-0.075-0.187-0.135-0.317-0.18-0.392c0-0.18-0.037-0.333-0.112-0.46c-0.075-0.127-0.12-0.272-0.135-0.437
		c-0.104-0.135-0.153-0.299-0.146-0.494c0.008-0.194-0.056-0.336-0.19-0.426c-0.03-0.09-0.045-0.194-0.045-0.314
		c0-0.104,0.019-0.18,0.056-0.225c0.037-0.044,0.082-0.082,0.135-0.112c0.053-0.03,0.098-0.056,0.135-0.079s0.056-0.063,0.056-0.123
		c-0.089,0-0.16,0.022-0.213,0.067s-0.115,0.083-0.19,0.112c-0.149-0.03-0.221-0.116-0.213-0.258
		C79.637,13.912,79.626,13.789,79.597,13.684z M78.609,12.271c0-0.03-0.022-0.045-0.067-0.045h-0.156h-0.022
		c0,0.03-0.026,0.052-0.079,0.067c-0.053,0.015-0.078,0.044-0.078,0.089c0,0.015,0.015,0.022,0.045,0.022c0.029,0,0.052,0,0.067,0
		C78.437,12.406,78.534,12.361,78.609,12.271z M78.587,13.594c0-0.03-0.03-0.045-0.09-0.045s-0.09,0.015-0.09,0.045
		c0,0.06,0.008,0.105,0.022,0.135c0.03,0,0.057-0.015,0.079-0.045C78.531,13.654,78.557,13.625,78.587,13.594z M79.192,11.195
		c-0.075-0.075-0.149-0.112-0.224-0.112c-0.03,0-0.067,0.007-0.112,0.022c-0.045,0.015-0.09,0.03-0.135,0.044
		c0,0.03,0.011,0.053,0.033,0.067c0.022,0.015,0.049,0.038,0.079,0.067h0.067h0.111C79.117,11.285,79.178,11.255,79.192,11.195z
		 M79.888,12.989c-0.03-0.075-0.082-0.123-0.157-0.146s-0.156-0.034-0.246-0.034h-0.292h-0.09c-0.09,0.045-0.172,0.079-0.246,0.101
		c-0.075,0.022-0.112,0.116-0.112,0.28c0.029,0,0.052,0.004,0.067,0.011c0.015,0.007,0.029,0.011,0.045,0.011
		c0.119,0,0.231-0.022,0.336-0.067s0.217-0.067,0.337-0.067c0.119,0,0.197,0.022,0.235,0.067c0.037,0.045,0.067,0.089,0.09,0.134
		s0.048,0.09,0.078,0.135c0.029,0.045,0.09,0.067,0.18,0.067c0.045,0,0.104-0.007,0.179-0.022c0.075-0.015,0.112-0.037,0.112-0.067
		c0-0.149-0.067-0.235-0.201-0.258C80.067,13.112,79.962,13.064,79.888,12.989z M79.035,20.793c0-0.03-0.022-0.045-0.066-0.045
		c-0.075,0-0.112,0.022-0.112,0.067c0,0.015,0.007,0.03,0.022,0.045C78.969,20.86,79.02,20.838,79.035,20.793z M80.246,11.599
		c-0.015-0.03-0.033-0.041-0.056-0.034c-0.022,0.008-0.041-0.003-0.056-0.034H80.09h-0.112c-0.075,0-0.12,0.026-0.135,0.079
		s-0.045,0.093-0.09,0.123c0.015,0.06,0.067,0.09,0.157,0.09h0.135h0.067c0.029-0.03,0.052-0.063,0.067-0.101
		C80.194,11.685,80.217,11.644,80.246,11.599z M80.919,12.361c-0.119-0.06-0.239-0.089-0.358-0.089c-0.03,0-0.063,0.007-0.101,0.022
		c-0.038,0.015-0.057,0.052-0.057,0.112c0,0.015,0.008,0.03,0.022,0.045h0.067c0.03,0,0.067,0.004,0.112,0.011
		c0.045,0.008,0.082,0.011,0.112,0.011C80.851,12.473,80.919,12.436,80.919,12.361z M81.099,11.397c0-0.09-0.015-0.138-0.045-0.146
		c-0.03-0.007-0.067-0.011-0.112-0.011c-0.104,0-0.179,0.026-0.224,0.079s-0.105,0.116-0.18,0.19
		c0.029,0.03,0.097,0.045,0.202,0.045c0.104,0,0.171-0.007,0.201-0.022h0.022c0.045,0,0.071-0.015,0.079-0.045
		C81.05,11.457,81.068,11.427,81.099,11.397z M81.166,20.389c-0.03-0.029-0.067-0.045-0.112-0.045s-0.09,0.008-0.135,0.022
		c-0.045,0.016-0.09,0.022-0.134,0.022H80.74c-0.045,0.016-0.083,0.026-0.112,0.034c-0.03,0.008-0.045,0.033-0.045,0.078
		c0.119,0.12,0.276,0.18,0.471,0.18c0.075,0,0.112-0.037,0.112-0.112V20.389z M81.256,13.101c-0.045-0.06-0.105-0.09-0.18-0.09
		c-0.075,0-0.149,0-0.225,0c-0.029,0-0.044,0.022-0.044,0.067s0.021,0.071,0.066,0.079c0.045,0.008,0.082,0.011,0.112,0.011
		c0.045,0,0.082-0.003,0.112-0.011C81.129,13.15,81.181,13.131,81.256,13.101z M81.502,14.491c-0.015-0.03-0.052-0.045-0.111-0.045
		h-0.18h-0.045c0,0.03-0.008,0.042-0.022,0.034c-0.015-0.007-0.022,0.004-0.022,0.034v0.022h0.067h0.157
		C81.434,14.536,81.487,14.521,81.502,14.491z M81.434,17.474c-0.029-0.03-0.06-0.044-0.089-0.044c-0.045,0-0.083,0.014-0.112,0.044
		l0.09,0.045C81.338,17.519,81.375,17.504,81.434,17.474z M81.569,20.008c-0.03,0-0.045-0.011-0.045-0.033s-0.022-0.034-0.067-0.034
		c-0.029,0.03-0.044,0.061-0.044,0.09c0,0.045,0.015,0.067,0.044,0.067c0.075,0,0.112-0.015,0.112-0.045V20.008z M84.418,20.434
		c-0.061-0.074-0.143-0.111-0.247-0.111c-0.165,0-0.321,0.029-0.471,0.089c-0.149,0.061-0.322,0.09-0.516,0.09
		c-0.18,0-0.337-0.025-0.472-0.078c-0.134-0.053-0.291-0.079-0.471-0.079c-0.104,0-0.202,0.016-0.291,0.045
		c-0.016,0-0.022-0.003-0.022-0.011s-0.008-0.012-0.022-0.012c-0.016,0.016-0.022,0.03-0.022,0.045c0,0.075,0.025,0.124,0.078,0.146
		s0.115,0.033,0.19,0.033h0.09c0.104,0.045,0.202,0.067,0.292,0.067c0.134,0,0.265-0.019,0.392-0.056s0.259-0.057,0.393-0.057
		c0.075,0,0.172,0.016,0.292,0.045l0.18,0.045c0.104-0.029,0.22-0.049,0.347-0.056C84.264,20.572,84.357,20.523,84.418,20.434z
		 M82.489,19.515h-0.157h-0.135H82.13v0.045c0,0.03-0.008,0.045-0.022,0.045s-0.022,0.03-0.022,0.09
		c0.06,0.044,0.143,0.066,0.247,0.066c0.06,0,0.127-0.022,0.202-0.066v-0.022v-0.09C82.534,19.552,82.518,19.529,82.489,19.515z
		 M82.332,18.662l-0.022-0.022c-0.015,0-0.03,0.004-0.045,0.012s-0.03,0.011-0.045,0.011h-0.022v0.022
		c0,0.03,0.008,0.045,0.022,0.045h0.067h0.022c0-0.015,0.004-0.025,0.011-0.033C82.328,18.688,82.332,18.678,82.332,18.662z
		 M83.386,19.066c-0.06-0.015-0.108-0.026-0.146-0.034c-0.037-0.007-0.078-0.011-0.123-0.011s-0.128,0.015-0.247,0.045v0.022
		c0,0.029-0.011,0.041-0.033,0.033s-0.034,0.004-0.034,0.033c0,0.03,0.03,0.053,0.09,0.067c0.06,0.016,0.119,0.022,0.18,0.022
		c0.06,0,0.127-0.003,0.201-0.011c0.075-0.008,0.112-0.049,0.112-0.123V19.066z M83.273,17.563
		c-0.029-0.045-0.074-0.067-0.134-0.067c-0.105,0-0.157,0.03-0.157,0.09c0,0.015,0.003,0.022,0.011,0.022s0.012,0.015,0.012,0.045
		c0.06-0.03,0.119-0.034,0.18-0.012C83.244,17.664,83.273,17.639,83.273,17.563z M83.251,16.734c0-0.03-0.015-0.045-0.044-0.045
		h-0.09h-0.022v0.022c0,0.03,0.007,0.045,0.022,0.045c0.029,0,0.052-0.003,0.067-0.011C83.199,16.738,83.222,16.734,83.251,16.734z
		 M83.184,19.896v-0.022c0-0.029-0.016-0.045-0.045-0.045c0,0.061,0.007,0.09,0.022,0.09L83.184,19.896z M83.745,22.183
		c0-0.044-0.016-0.066-0.045-0.066c-0.045,0-0.067,0.022-0.067,0.066v0.022c0,0.016,0.015,0.022,0.045,0.022
		c0.015,0,0.022-0.007,0.022-0.022C83.7,22.19,83.715,22.183,83.745,22.183z M83.969,19.649c0-0.03-0.015-0.045-0.045-0.045
		c-0.015,0.015-0.022,0.03-0.022,0.045s0.008,0.022,0.022,0.022S83.954,19.664,83.969,19.649z M85.045,22.071
		c-0.029-0.075-0.127-0.112-0.291-0.112c0,0.03-0.004,0.049-0.012,0.056c-0.007,0.008-0.011,0.02-0.011,0.034
		c0,0.03,0.022,0.052,0.067,0.067c0.045,0.015,0.074,0.022,0.09,0.022C84.948,22.139,85.001,22.116,85.045,22.071z"/>
	<path fill="#FFFFFF" d="M97.155,8.661c0.06,0,0.107,0.015,0.146,0.044c0.037,0.03,0.078,0.045,0.123,0.045s0.094-0.011,0.146-0.034
		c0.053-0.022,0.108-0.033,0.169-0.033c0.089,0,0.205,0.022,0.348,0.067c0.142,0.045,0.287,0.098,0.437,0.157
		c0.165,0.06,0.344,0.127,0.538,0.202c0.045,0.045,0.12,0.071,0.225,0.079c0.104,0.008,0.213,0.015,0.325,0.022
		c0.112,0.008,0.221,0.022,0.325,0.045s0.187,0.078,0.247,0.168c0.193,0.165,0.34,0.329,0.437,0.493
		c0.098,0.165,0.146,0.396,0.146,0.695c0,0.12-0.016,0.239-0.045,0.359c-0.03,0.12-0.045,0.224-0.045,0.314s0.015,0.179,0.045,0.269
		c0.029,0.09,0.045,0.209,0.045,0.359c0,0.075-0.008,0.134-0.022,0.179c-0.016,0.045-0.022,0.105-0.022,0.18
		c0,0.045,0.007,0.089,0.022,0.134c0.015,0.045,0.022,0.098,0.022,0.157c0,0.075-0.008,0.153-0.022,0.235
		c-0.016,0.083-0.022,0.161-0.022,0.235c0,0.12,0.029,0.217,0.09,0.292c0,0.015-0.004,0.03-0.012,0.045
		c-0.008,0.015-0.011,0.03-0.011,0.045c0,0.015,0.007,0.034,0.022,0.056c0.015,0.022,0.021,0.048,0.021,0.078
		c0,0.03-0.007,0.06-0.021,0.09c-0.016,0.03-0.022,0.053-0.022,0.067c0,0.03,0.007,0.049,0.022,0.056
		c0.015,0.008,0.021,0.026,0.021,0.056v0.067c0,0.03,0.008,0.053,0.022,0.067l-0.044,0.022v0.022c-0.061,0.12-0.15,0.235-0.27,0.348
		c-0.12,0.112-0.217,0.168-0.292,0.168c-0.104,0-0.19-0.03-0.258-0.089s-0.123-0.12-0.168-0.18
		c-0.045-0.075-0.112-0.127-0.202-0.157c-0.089-0.03-0.164-0.082-0.224-0.157c-0.09-0.06-0.168-0.127-0.235-0.202
		s-0.161-0.12-0.28-0.135c-0.12-0.045-0.232-0.108-0.337-0.19c-0.104-0.082-0.224-0.146-0.358-0.19
		c-0.104-0.03-0.247-0.071-0.426-0.124c-0.18-0.052-0.292-0.079-0.337-0.079c-0.075,0-0.146,0.004-0.213,0.011
		c-0.067,0.008-0.139,0.011-0.213,0.011c-0.135,0-0.232-0.022-0.292-0.067c-0.164,0.03-0.354,0.045-0.571,0.045
		s-0.408,0.06-0.572,0.18c-0.09,0.075-0.262,0.112-0.516,0.112c-0.269,0.12-0.512,0.28-0.729,0.482
		c-0.217,0.202-0.404,0.415-0.561,0.639c-0.157,0.224-0.292,0.441-0.404,0.65c-0.111,0.21-0.19,0.374-0.235,0.494v0.067
		c0,0.075-0.011,0.142-0.033,0.202c-0.022,0.06-0.034,0.127-0.034,0.202c0,0.03,0.004,0.049,0.012,0.056
		c0.007,0.008,0.011,0.026,0.011,0.056c-0.045,0.06-0.09,0.123-0.134,0.19c-0.045,0.067-0.067,0.139-0.067,0.213
		c0,0.03,0.015,0.075,0.045,0.134c-0.016,0.075-0.034,0.135-0.057,0.179c-0.022,0.045-0.033,0.104-0.033,0.18
		c0,0.06,0.007,0.123,0.022,0.19c0.015,0.067,0.022,0.139,0.022,0.213c0,0.12-0.008,0.202-0.022,0.247
		c0.074,0.12,0.112,0.284,0.112,0.493v0.225c0,0.179,0.025,0.325,0.078,0.437c0.052,0.112,0.112,0.221,0.18,0.325
		c0.066,0.105,0.126,0.202,0.179,0.292s0.079,0.202,0.079,0.336c0.045,0.15,0.134,0.255,0.269,0.314s0.217,0.172,0.247,0.336
		c0.029,0.12,0.097,0.202,0.201,0.247s0.202,0.104,0.292,0.18c0.164,0.119,0.329,0.231,0.493,0.336s0.359,0.165,0.583,0.18
		c0.09,0.045,0.19,0.075,0.303,0.09s0.205,0.045,0.28,0.089c0.06,0.016,0.112,0.034,0.157,0.057s0.097,0.033,0.157,0.033
		c0.045,0,0.093-0.007,0.146-0.022c0.052-0.015,0.108-0.022,0.168-0.022c0.075,0,0.153,0.008,0.235,0.022
		c0.082,0.016,0.161,0.022,0.235,0.022c0.21,0,0.419-0.041,0.628-0.123c0.21-0.082,0.415-0.183,0.617-0.303
		c0.202-0.119,0.403-0.247,0.605-0.381c0.202-0.135,0.407-0.254,0.616-0.359c0.135-0.119,0.239-0.217,0.314-0.291
		c0.074-0.075,0.217-0.112,0.426-0.112c0.015,0.09,0.06,0.153,0.135,0.19c0.074,0.037,0.112,0.108,0.112,0.213
		c0.06,0.12,0.112,0.258,0.156,0.415c0.045,0.157,0.067,0.317,0.067,0.482c0,0.119-0.019,0.228-0.056,0.325
		c-0.037,0.097-0.056,0.221-0.056,0.37c0,0.104,0.003,0.194,0.011,0.269c0.008,0.075,0.011,0.149,0.011,0.225
		c0,0.119-0.007,0.243-0.021,0.37c-0.016,0.127-0.022,0.25-0.022,0.37c0,0.179,0.029,0.328,0.089,0.448
		c-0.029,0.015-0.056,0.067-0.078,0.157c-0.022,0.089-0.033,0.149-0.033,0.179c0,0.075,0.011,0.149,0.033,0.225
		s0.033,0.143,0.033,0.202c0,0.179-0.101,0.351-0.303,0.516c-0.201,0.164-0.354,0.307-0.459,0.426
		c-0.149,0.045-0.296,0.082-0.438,0.112c-0.143,0.029-0.28,0.082-0.415,0.157c-0.209,0-0.389,0.033-0.538,0.101
		s-0.329,0.101-0.538,0.101c-0.015,0.03-0.06,0.049-0.135,0.057c-0.075,0.007-0.161,0.015-0.258,0.022
		c-0.098,0.007-0.194,0.019-0.291,0.033c-0.098,0.015-0.184,0.045-0.258,0.09c-0.3,0-0.595-0.004-0.887-0.012
		c-0.291-0.007-0.587-0.026-0.886-0.056c-0.015-0.015-0.07-0.03-0.168-0.045s-0.205-0.026-0.325-0.033
		c-0.119-0.008-0.243-0.02-0.37-0.034s-0.221-0.037-0.28-0.067c-0.015-0.015-0.063-0.037-0.146-0.067
		c-0.082-0.029-0.18-0.063-0.291-0.101c-0.112-0.037-0.225-0.071-0.337-0.101c-0.112-0.03-0.198-0.053-0.258-0.067
		c-0.313-0.09-0.591-0.194-0.83-0.314c-0.164,0-0.307-0.07-0.426-0.213c-0.12-0.142-0.284-0.228-0.493-0.258
		c-0.06-0.209-0.18-0.348-0.358-0.415c-0.18-0.067-0.329-0.168-0.449-0.303c-0.09-0.029-0.146-0.078-0.168-0.146
		s-0.071-0.115-0.146-0.146c-0.105-0.06-0.19-0.112-0.258-0.157s-0.102-0.149-0.102-0.313c-0.209-0.21-0.411-0.423-0.605-0.64
		s-0.299-0.393-0.313-0.526c-0.12-0.09-0.188-0.21-0.202-0.359s-0.067-0.276-0.157-0.381c-0.074-0.209-0.172-0.43-0.291-0.662
		c-0.12-0.231-0.194-0.496-0.225-0.796c-0.09-0.119-0.131-0.283-0.123-0.493c0.008-0.209-0.041-0.374-0.146-0.493
		c0-0.06,0.003-0.12,0.011-0.18s0.012-0.119,0.012-0.18c0-0.119-0.022-0.216-0.067-0.291s-0.067-0.172-0.067-0.292
		c0-0.104,0.011-0.205,0.033-0.303c0.022-0.097,0.034-0.197,0.034-0.303c-0.045-0.09-0.067-0.201-0.067-0.336
		c0-0.119,0.011-0.228,0.033-0.325s0.063-0.183,0.124-0.258c-0.016-0.075-0.034-0.149-0.057-0.225
		c-0.022-0.074-0.033-0.149-0.033-0.224c0-0.104,0.025-0.198,0.078-0.28c0.053-0.082,0.079-0.183,0.079-0.303v-0.09
		c0.045-0.03,0.07-0.074,0.078-0.134c0.007-0.06,0.011-0.12,0.011-0.18c-0.015,0-0.022-0.022-0.022-0.067
		c0.03,0,0.06-0.075,0.09-0.225c0.03-0.149,0.06-0.254,0.09-0.314c0.03,0,0.045-0.022,0.045-0.067
		c0.045-0.254,0.119-0.475,0.225-0.662c0.104-0.187,0.201-0.385,0.291-0.594c0.03-0.194,0.104-0.348,0.225-0.46
		c0.119-0.112,0.202-0.25,0.246-0.415c0-0.075,0.026-0.135,0.079-0.18c0.052-0.045,0.108-0.082,0.168-0.112
		c0.119-0.075,0.205-0.191,0.258-0.348c0.053-0.157,0.19-0.265,0.415-0.325c0.074-0.149,0.146-0.258,0.213-0.325
		s0.135-0.124,0.202-0.168c0.067-0.045,0.127-0.082,0.179-0.112c0.053-0.03,0.102-0.082,0.146-0.157
		c0.045-0.149,0.135-0.235,0.269-0.258c0.135-0.022,0.225-0.108,0.27-0.258c0.194-0.12,0.411-0.224,0.65-0.314
		c0.238-0.09,0.471-0.202,0.695-0.336c0.119-0.03,0.228-0.075,0.325-0.134c0.097-0.06,0.213-0.097,0.348-0.112
		c0.254-0.12,0.583-0.22,0.986-0.303c0.403-0.082,0.725-0.123,0.964-0.123h0.112c0.03-0.03,0.082-0.045,0.157-0.045
		c0.074,0,0.127,0,0.157,0c0.164,0,0.317,0.007,0.459,0.022c0.143,0.015,0.28,0.022,0.415,0.022
		C96.968,8.684,97.08,8.676,97.155,8.661z M90.315,18.281c-0.016-0.015-0.038-0.022-0.067-0.022c-0.015,0-0.026,0.004-0.033,0.011
		c-0.008,0.008-0.026,0.012-0.057,0.012h-0.022v0.022c0,0.03,0.019,0.045,0.057,0.045c0.037,0,0.07,0,0.101,0
		c0-0.015,0.004-0.026,0.011-0.034C90.311,18.308,90.315,18.296,90.315,18.281z M90.473,19.806l-0.09-0.045
		c-0.03-0.015-0.053-0.029-0.067-0.044c-0.06,0-0.09,0.015-0.09,0.044l0.045,0.112c0.015,0,0.029-0.007,0.045-0.022
		c0.029,0.03,0.041,0.045,0.033,0.045s0.012,0,0.057,0s0.067-0.015,0.067-0.045V19.806z M91.279,19.312
		c0-0.074-0.045-0.112-0.134-0.112c-0.03,0-0.067,0.004-0.112,0.012s-0.083,0.011-0.112,0.011h-0.045l-0.045,0.045
		c0,0.03,0.008,0.067,0.022,0.112s0.029,0.067,0.045,0.067c0.015,0,0.029-0.008,0.045-0.022c0.015,0.03,0.052,0.045,0.112,0.045
		c0.045,0,0.093-0.012,0.146-0.034c0.052-0.021,0.078-0.048,0.078-0.078V19.312z M91.167,17.676c0-0.045-0.06-0.067-0.179-0.067
		c0,0.03-0.012,0.053-0.034,0.067s-0.033,0.03-0.033,0.045c0,0.03,0.037,0.045,0.112,0.045
		C91.123,17.766,91.167,17.735,91.167,17.676z M91.1,14.29c0-0.03-0.022-0.045-0.067-0.045c0,0.045,0.007,0.067,0.022,0.067
		c0.015,0,0.022-0.003,0.022-0.011C91.078,14.293,91.085,14.29,91.1,14.29z M91.167,21.196c0-0.029-0.015-0.045-0.044-0.045
		c-0.03,0-0.061,0-0.09,0v0.022c0,0.06,0.037,0.09,0.112,0.09C91.16,21.249,91.167,21.227,91.167,21.196z M91.862,21.555
		c-0.045-0.029-0.086-0.066-0.123-0.111s-0.094-0.067-0.168-0.067h-0.067c0,0.075,0.022,0.123,0.067,0.146s0.082,0.049,0.112,0.078
		h0.022h0.111C91.848,21.6,91.862,21.585,91.862,21.555z M91.907,19.806v-0.045c0-0.029-0.022-0.044-0.067-0.044
		c-0.149,0-0.224,0.06-0.224,0.179l0.045,0.045C91.735,19.94,91.817,19.896,91.907,19.806z M92.019,20.703
		c-0.03-0.03-0.053-0.053-0.067-0.067s-0.045-0.022-0.09-0.022c-0.06,0-0.09,0.022-0.09,0.067s0.016,0.067,0.045,0.067h0.045h0.09
		C91.997,20.748,92.019,20.733,92.019,20.703z M92.267,23.192c-0.075-0.075-0.173-0.112-0.292-0.112
		c-0.075,0-0.127,0.015-0.157,0.045c0.03,0.075,0.071,0.112,0.124,0.112c0.052,0,0.078,0.015,0.078,0.045
		C92.124,23.282,92.206,23.252,92.267,23.192z M92.154,13.639c0-0.03-0.03-0.045-0.09-0.045c-0.03,0-0.067,0-0.112,0
		s-0.067,0.008-0.067,0.022c0,0.015,0.015,0.034,0.045,0.056s0.045,0.042,0.045,0.056h0.022h0.09c0.045,0,0.067-0.015,0.067-0.045
		V13.639z M92.647,20.277l-0.045-0.045c-0.015,0-0.022,0.008-0.022,0.022s0.008,0.022,0.022,0.022c0,0.015,0.015,0.022,0.045,0.022
		V20.277z M93.028,21.533c-0.015,0-0.022-0.012-0.022-0.034s-0.015-0.033-0.044-0.033h-0.022c-0.03,0-0.057-0.004-0.079-0.012
		c-0.022-0.007-0.049-0.011-0.078-0.011c-0.12,0-0.18,0.06-0.18,0.179c0,0.045,0.03,0.067,0.09,0.067
		c0.074,0,0.127-0.007,0.157-0.022c0.029,0,0.052-0.007,0.067-0.022h0.066c0.03-0.029,0.045-0.052,0.045-0.067V21.533z
		 M93.477,22.99c-0.03-0.074-0.075-0.112-0.135-0.112s-0.127-0.015-0.202-0.045c-0.075,0.016-0.112,0.053-0.112,0.112
		c0,0.075,0.041,0.139,0.124,0.19c0.082,0.053,0.16,0.079,0.235,0.079c0.029,0,0.07-0.015,0.123-0.045s0.078-0.067,0.078-0.112
		c-0.029,0-0.041-0.015-0.033-0.045c0.008-0.029-0.004-0.045-0.033-0.045c-0.016,0-0.022,0.004-0.022,0.012
		S93.492,22.99,93.477,22.99z M94.128,11.307v-0.022c0-0.015-0.008-0.022-0.022-0.022c-0.016,0-0.038,0.011-0.067,0.034
		c-0.03,0.022-0.038,0.042-0.022,0.056h0.022c0.029,0,0.045-0.007,0.045-0.022C94.083,11.315,94.098,11.307,94.128,11.307z
		 M94.351,23.282c0-0.045-0.045-0.067-0.135-0.067c-0.06,0-0.097,0.008-0.111,0.022c0,0.104,0.037,0.156,0.111,0.156
		C94.307,23.394,94.351,23.356,94.351,23.282z M95.092,11.038c-0.015-0.03-0.037-0.045-0.067-0.045
		c-0.015,0-0.033,0.004-0.056,0.011c-0.022,0.008-0.049,0.011-0.079,0.011h-0.045c0,0.045-0.022,0.067-0.066,0.067
		c-0.045,0-0.067,0.015-0.067,0.044c0,0.075,0.022,0.112,0.067,0.112c0.044,0,0.081,0,0.111,0
		C95.01,11.21,95.077,11.143,95.092,11.038z M95.226,24.672c-0.03-0.045-0.098-0.067-0.202-0.067c-0.075,0-0.112,0.022-0.112,0.067
		c0,0.03,0.026,0.045,0.079,0.045c0.052,0,0.093,0,0.123,0C95.174,24.717,95.211,24.702,95.226,24.672z M95.339,22.766
		c0-0.015-0.016-0.021-0.045-0.021c-0.03,0-0.061,0.007-0.09,0.021c-0.061,0.03-0.09,0.061-0.09,0.09l0.045,0.045
		c0.029-0.029,0.078-0.037,0.146-0.022c0.067,0.016,0.101-0.007,0.101-0.067c0-0.015-0.007-0.019-0.021-0.011
		C95.368,22.808,95.353,22.796,95.339,22.766z"/>
	<path fill="#FFFFFF" d="M104.264,8.93l0.022-0.022c0.06-0.015,0.157-0.022,0.291-0.022c0.12,0,0.239,0.008,0.359,0.022
		c0.119,0.015,0.246,0.022,0.381,0.022c0,0.03,0.022,0.045,0.067,0.045c0.03,0,0.053-0.007,0.067-0.022
		c0.015-0.015,0.037-0.022,0.067-0.022h0.112c0.09,0,0.183-0.003,0.28-0.011c0.097-0.007,0.197-0.011,0.303-0.011
		c0.149,0,0.31,0.004,0.481,0.011c0.172,0.008,0.329,0.03,0.472,0.067c0.142,0.037,0.272,0.101,0.393,0.19
		c0.119,0.09,0.201,0.217,0.246,0.381c0,0.165,0.012,0.325,0.034,0.482c0.022,0.157,0.033,0.311,0.033,0.46
		c0,0.089-0.008,0.168-0.022,0.235s-0.022,0.153-0.022,0.258c0,0.179,0.015,0.322,0.045,0.426c0.03,0.105,0.045,0.217,0.045,0.336
		c0,0.09-0.008,0.195-0.022,0.314c-0.015,0.12-0.033,0.239-0.056,0.359c-0.022,0.12-0.045,0.232-0.067,0.336
		c-0.022,0.105-0.042,0.179-0.057,0.224c0.045,0.045,0.067,0.143,0.067,0.292c0,0.03-0.004,0.064-0.011,0.101
		c-0.008,0.038-0.012,0.071-0.012,0.101c0,0.015,0.008,0.022,0.022,0.022l0.022,0.022v0.112v0.18c0,0.179-0.053,0.292-0.157,0.336
		c0.03,0.135,0.079,0.254,0.146,0.359c0.067,0.105,0.101,0.239,0.101,0.404v0.134c0.029,0.03,0.06,0.053,0.09,0.067
		c0.029,0.015,0.067,0.022,0.112,0.022c0.06-0.045,0.108-0.079,0.146-0.101c0.037-0.022,0.086-0.049,0.146-0.079
		c0.104-0.045,0.213-0.127,0.325-0.247s0.168-0.225,0.168-0.314v-0.067c0-0.045,0.041-0.131,0.124-0.258
		c0.082-0.127,0.179-0.262,0.291-0.404s0.221-0.276,0.325-0.404c0.104-0.126,0.18-0.22,0.225-0.28
		c0.074-0.149,0.153-0.295,0.235-0.437s0.198-0.265,0.348-0.37c0.015-0.149,0.063-0.284,0.146-0.404
		c0.082-0.119,0.168-0.235,0.258-0.348c0.09-0.112,0.183-0.228,0.28-0.347s0.176-0.254,0.235-0.404
		c0.075-0.09,0.161-0.165,0.258-0.224c0.098-0.06,0.146-0.165,0.146-0.314c0.045-0.03,0.074-0.082,0.089-0.157
		c0.016-0.075,0.045-0.134,0.09-0.179c0.104-0.12,0.225-0.228,0.359-0.325s0.246-0.22,0.336-0.37
		c0.12-0.045,0.276-0.071,0.471-0.079c0.194-0.007,0.374-0.011,0.539-0.011h0.313c0.104,0,0.202-0.007,0.291-0.022
		c0.09-0.015,0.18-0.022,0.27-0.022c0.209,0,0.407,0.011,0.595,0.033c0.187,0.022,0.377,0.034,0.571,0.034c0.075,0,0.138,0,0.19,0
		s0.116-0.007,0.19-0.022c0.06,0.03,0.149,0.045,0.27,0.045c0.135,0,0.258-0.026,0.37-0.078s0.228-0.079,0.348-0.079
		c0.164,0,0.321,0.071,0.471,0.213s0.225,0.273,0.225,0.393c0,0.165-0.053,0.288-0.157,0.37s-0.172,0.183-0.202,0.303
		c-0.06,0.165-0.16,0.292-0.303,0.381c-0.142,0.09-0.228,0.225-0.258,0.404c-0.075,0.105-0.157,0.202-0.246,0.292
		c-0.09,0.09-0.173,0.187-0.247,0.292c-0.045,0.12-0.12,0.217-0.225,0.292c-0.104,0.075-0.164,0.187-0.179,0.336
		c-0.09,0.105-0.188,0.206-0.292,0.303s-0.194,0.198-0.269,0.303c-0.016,0.105-0.053,0.194-0.112,0.269
		c-0.061,0.075-0.127,0.146-0.202,0.213c-0.075,0.067-0.146,0.139-0.213,0.213s-0.108,0.157-0.123,0.247
		c-0.105,0.075-0.18,0.168-0.225,0.28s-0.112,0.213-0.202,0.303c-0.045,0.075-0.111,0.127-0.201,0.157
		c-0.09,0.03-0.149,0.09-0.18,0.18c0,0.12-0.026,0.217-0.078,0.292c-0.053,0.075-0.112,0.146-0.18,0.213s-0.135,0.135-0.202,0.202
		c-0.067,0.067-0.108,0.146-0.123,0.236c-0.18,0.149-0.311,0.288-0.393,0.415c-0.082,0.127-0.143,0.239-0.18,0.336
		c-0.037,0.098-0.07,0.18-0.101,0.247c-0.03,0.067-0.09,0.124-0.18,0.168c-0.015,0.06-0.041,0.109-0.078,0.146
		s-0.056,0.078-0.056,0.123c0,0.164,0.074,0.325,0.224,0.482c0.149,0.156,0.284,0.288,0.404,0.393
		c0.029,0.119,0.082,0.221,0.156,0.303c0.075,0.082,0.149,0.16,0.225,0.235c0.074,0.209,0.225,0.411,0.448,0.605
		c0.03,0.164,0.116,0.288,0.258,0.37c0.143,0.082,0.229,0.205,0.258,0.369c0.075,0.09,0.153,0.195,0.235,0.314
		c0.082,0.12,0.161,0.235,0.236,0.348c0.074,0.112,0.148,0.205,0.224,0.28s0.135,0.112,0.18,0.112
		c0.06,0.09,0.138,0.201,0.235,0.336c0.097,0.135,0.19,0.262,0.28,0.381c0.09,0.12,0.168,0.232,0.235,0.337s0.102,0.165,0.102,0.18
		c0.254,0.209,0.455,0.418,0.605,0.628c0.148,0.209,0.299,0.403,0.448,0.583c0.074,0.06,0.142,0.123,0.201,0.19
		s0.104,0.153,0.135,0.258s0.082,0.165,0.157,0.18c0.074,0.015,0.149,0.052,0.225,0.111c0.045,0.195,0.152,0.367,0.325,0.517
		c0.171,0.149,0.258,0.307,0.258,0.471c0,0.119-0.098,0.235-0.292,0.348s-0.381,0.168-0.561,0.168c-0.075,0-0.143-0.012-0.202-0.034
		c-0.06-0.021-0.127-0.033-0.201-0.033c-0.075,0-0.143,0.004-0.202,0.012c-0.06,0.007-0.104,0.011-0.135,0.011
		c-0.03-0.015-0.082-0.022-0.156-0.022c-0.075,0-0.12,0.008-0.135,0.022h-0.112c-0.09,0-0.18,0.008-0.27,0.022
		c-0.089,0.015-0.179,0.022-0.269,0.022c-0.075,0-0.153-0.008-0.235-0.022c-0.083-0.015-0.161-0.022-0.235-0.022
		c-0.21,0-0.404,0.019-0.583,0.056c-0.18,0.037-0.374,0.057-0.583,0.057c-0.045,0-0.087-0.004-0.124-0.012s-0.078-0.011-0.123-0.011
		c-0.075,0-0.135,0.007-0.18,0.022c-0.045,0.015-0.098,0.022-0.156,0.022c-0.165,0-0.3-0.045-0.404-0.135
		c-0.224,0-0.389-0.029-0.493-0.09c-0.104-0.06-0.19-0.135-0.258-0.224c-0.067-0.09-0.131-0.184-0.19-0.281
		c-0.061-0.097-0.143-0.183-0.247-0.258c-0.045-0.104-0.104-0.197-0.18-0.28c-0.074-0.082-0.134-0.183-0.179-0.303
		c-0.045-0.148-0.131-0.254-0.258-0.313c-0.128-0.06-0.213-0.172-0.258-0.337c-0.075-0.029-0.15-0.082-0.225-0.156
		c-0.075-0.075-0.112-0.165-0.112-0.27c-0.03-0.119-0.086-0.224-0.168-0.313s-0.161-0.172-0.235-0.247
		c-0.075-0.239-0.21-0.403-0.404-0.493c-0.089-0.075-0.138-0.176-0.146-0.303s-0.071-0.213-0.19-0.258
		c-0.075-0.12-0.149-0.228-0.225-0.325c-0.074-0.098-0.172-0.19-0.291-0.28c-0.344-0.882-0.732-1.323-1.166-1.323
		c-0.075,0.06-0.112,0.149-0.112,0.27c0,0.029,0.004,0.063,0.011,0.101c0.008,0.037,0.012,0.071,0.012,0.101
		c0,0.27-0.015,0.58-0.045,0.931c-0.03,0.352-0.045,0.685-0.045,0.998c0,0.045,0.022,0.12,0.067,0.225s0.067,0.187,0.067,0.246
		c0,0.061-0.016,0.131-0.045,0.213c-0.03,0.083-0.045,0.169-0.045,0.258c0.09,0.09,0.135,0.195,0.135,0.314
		c0,0.045-0.012,0.094-0.034,0.146c-0.022,0.053-0.033,0.102-0.033,0.146c0,0.075,0.011,0.143,0.033,0.202
		c0.022,0.061,0.034,0.127,0.034,0.202c0,0.194-0.008,0.43-0.022,0.706c-0.016,0.277-0.045,0.497-0.09,0.662
		c0,0.134-0.123,0.243-0.37,0.325c-0.246,0.081-0.527,0.138-0.841,0.168c-0.313,0.029-0.616,0.048-0.908,0.056
		s-0.482,0.012-0.572,0.012c-0.119,0-0.213-0.022-0.28-0.067c-0.066-0.045-0.138-0.067-0.213-0.067c-0.104,0-0.228,0.007-0.37,0.022
		c-0.142,0.015-0.288,0.022-0.437,0.022c-0.374,0-0.621-0.086-0.74-0.258c-0.12-0.172-0.18-0.362-0.18-0.572
		c0-0.119,0.004-0.235,0.012-0.348c0.007-0.112,0.011-0.228,0.011-0.348c0-0.209-0.026-0.411-0.078-0.605
		c-0.053-0.193-0.079-0.389-0.079-0.583c0-0.074,0.022-0.172,0.067-0.291c-0.015-0.075-0.022-0.194-0.022-0.359
		c0-0.074,0-0.156,0-0.246s0.008-0.172,0.022-0.247c-0.03-0.149-0.045-0.276-0.045-0.381c0-0.09,0.015-0.209,0.045-0.359
		c-0.03-0.119-0.045-0.216-0.045-0.291c0-0.104,0.012-0.194,0.034-0.27c0.022-0.074,0.033-0.149,0.033-0.224
		c0-0.12-0.019-0.229-0.056-0.325c-0.038-0.098-0.057-0.198-0.057-0.303c0-0.09,0.03-0.172,0.09-0.247
		c-0.015-0.045-0.022-0.119-0.022-0.225c0-0.179,0.004-0.381,0.012-0.605c0.007-0.224,0.011-0.418,0.011-0.583
		c0.015-0.074,0.034-0.148,0.057-0.224s0.033-0.149,0.033-0.225c0-0.045-0.008-0.097-0.022-0.156
		c-0.015-0.061-0.022-0.12-0.022-0.18c0-0.074,0.008-0.157,0.022-0.247c0.015-0.089,0.037-0.171,0.067-0.247
		c-0.06-0.06-0.09-0.164-0.09-0.314c0-0.134,0.008-0.254,0.022-0.359c0.015-0.104,0.022-0.209,0.022-0.314
		c0-0.119-0.004-0.231-0.011-0.336c-0.008-0.104-0.012-0.217-0.012-0.336V14.85c-0.015-0.03-0.022-0.067-0.022-0.112
		c0-0.075,0.012-0.146,0.034-0.213s0.033-0.138,0.033-0.213s-0.011-0.157-0.033-0.247c-0.022-0.09-0.034-0.172-0.034-0.247v-0.426
		v-0.224c0.045-0.06,0.06-0.127,0.045-0.202c-0.015-0.074,0-0.142,0.045-0.202c-0.03-0.015-0.045-0.052-0.045-0.112v-0.089
		c0-0.045-0.008-0.086-0.022-0.124c-0.015-0.037-0.022-0.079-0.022-0.123c0-0.075,0.012-0.149,0.034-0.225
		c0.022-0.075,0.033-0.149,0.033-0.224c0-0.06-0.008-0.127-0.022-0.202s-0.022-0.149-0.022-0.225c0-0.164,0.004-0.34,0.012-0.527
		c0.007-0.187,0.011-0.37,0.011-0.549c0-0.12-0.004-0.231-0.011-0.336c-0.008-0.104-0.02-0.216-0.034-0.336
		c0.075-0.12,0.131-0.25,0.168-0.393c0.037-0.142,0.139-0.228,0.303-0.258c0.104-0.03,0.202-0.067,0.292-0.112
		s0.194-0.067,0.313-0.067c0.06,0,0.104,0.011,0.135,0.034S104.233,8.93,104.264,8.93z M105.004,16.196
		c0-0.075-0.038-0.112-0.112-0.112c-0.045,0-0.086,0.008-0.123,0.022c-0.038,0.015-0.087,0.022-0.146,0.022
		c-0.015,0-0.026-0.003-0.033-0.011c-0.008-0.007-0.019-0.011-0.033-0.011c0,0.06,0.029,0.097,0.089,0.112
		c0.06,0.015,0.127,0.022,0.202,0.022C104.921,16.241,104.974,16.226,105.004,16.196z M104.914,20.726
		c-0.03-0.015-0.067-0.022-0.112-0.022s-0.09,0.008-0.135,0.022s-0.082,0.03-0.111,0.045c0.029,0.03,0.097,0.045,0.201,0.045
		c0.03,0,0.071-0.004,0.123-0.012c0.053-0.007,0.079-0.025,0.079-0.056C104.943,20.733,104.929,20.726,104.914,20.726z
		 M104.847,14.648v-0.022c0-0.015-0.008-0.022-0.022-0.022h-0.135h-0.022c0,0.03,0.015,0.045,0.045,0.045h0.09H104.847z
		 M105.183,12.563c-0.044-0.015-0.082-0.03-0.111-0.045c-0.03-0.015-0.075-0.022-0.135-0.022s-0.09,0.008-0.09,0.022
		c0,0.03,0.03,0.052,0.09,0.067c0.06,0.015,0.112,0.022,0.157,0.022C105.123,12.608,105.153,12.593,105.183,12.563z M105.161,11.666
		v-0.022l-0.022-0.045h-0.045h-0.022l-0.045,0.045c0,0.015,0.015,0.022,0.045,0.022h0.067H105.161z M105.767,13.572
		c-0.075-0.015-0.139-0.044-0.191-0.089c-0.052-0.045-0.115-0.067-0.19-0.067c-0.03,0-0.063,0.004-0.101,0.011
		c-0.038,0.008-0.057,0.026-0.057,0.056v0.134v0.022c0.06,0.09,0.165,0.135,0.314,0.135c0.045-0.015,0.119-0.022,0.225-0.022
		c0.224,0,0.433,0.075,0.627,0.224c0.06,0,0.09-0.03,0.09-0.09c0-0.03-0.008-0.071-0.022-0.123s-0.029-0.079-0.045-0.079h-0.022
		c-0.074-0.06-0.176-0.082-0.303-0.067C105.964,13.632,105.855,13.617,105.767,13.572z M108.569,16.061
		c-0.016-0.075-0.075-0.112-0.18-0.112c-0.03,0-0.056,0.003-0.078,0.011c-0.022,0.008-0.049,0.011-0.079,0.011
		c-0.044,0-0.074-0.007-0.089-0.022c-0.075,0.03-0.139,0.056-0.191,0.078c-0.052,0.022-0.078,0.086-0.078,0.191
		c-0.03,0.044-0.116,0.093-0.258,0.146c-0.143,0.053-0.292,0.094-0.448,0.124c-0.157,0.03-0.296,0.056-0.415,0.078
		c-0.12,0.022-0.172,0.034-0.157,0.034c-0.06,0.12-0.198,0.195-0.415,0.225s-0.362,0.044-0.437,0.044
		c-0.061,0-0.109-0.015-0.146-0.044s-0.094-0.045-0.168-0.045c-0.015,0-0.041,0.004-0.078,0.011
		c-0.038,0.008-0.057,0.034-0.057,0.078h0.045h0.022c0,0.03,0.022,0.045,0.067,0.045v-0.022c0.03,0,0.053-0.004,0.067-0.012
		c0.015-0.007,0.037-0.011,0.067-0.011c0.09,0,0.172,0.026,0.246,0.079c0.075,0.053,0.143,0.115,0.202,0.19
		c0.09,0.03,0.19,0.048,0.303,0.056s0.205,0.049,0.28,0.123c0.075,0.09,0.18,0.157,0.314,0.202c0.134,0.045,0.201,0.157,0.201,0.337
		v0.156c0,0.105,0.037,0.157,0.112,0.157c0.09,0,0.198,0.004,0.325,0.012c0.127,0.007,0.25,0.022,0.37,0.044
		c0.119,0.022,0.221,0.053,0.303,0.09c0.082,0.038,0.123,0.087,0.123,0.146s-0.06,0.108-0.179,0.146
		c-0.12,0.037-0.247,0.071-0.382,0.101c-0.135,0.03-0.262,0.057-0.381,0.079c-0.12,0.022-0.18,0.056-0.18,0.101
		c0,0.09,0.012,0.165,0.034,0.225s0.033,0.134,0.033,0.224v0.045h0.045c0.015,0,0.045-0.004,0.09-0.011
		c0.045-0.008,0.067-0.019,0.067-0.034c0-0.104,0.06-0.168,0.179-0.19c0.12-0.022,0.254-0.056,0.404-0.101
		c0.149-0.045,0.283-0.124,0.403-0.235c0.119-0.112,0.18-0.311,0.18-0.595c0-0.06-0.026-0.112-0.079-0.157
		c-0.052-0.045-0.104-0.086-0.156-0.123c-0.053-0.037-0.105-0.078-0.157-0.123c-0.053-0.045-0.078-0.098-0.078-0.157
		c-0.016-0.045-0.139-0.104-0.37-0.18c-0.232-0.074-0.431-0.112-0.595-0.112c-0.06-0.045-0.112-0.101-0.157-0.168
		c-0.045-0.066-0.067-0.115-0.067-0.146c0-0.104,0.06-0.169,0.18-0.19c0.12-0.022,0.225-0.034,0.314-0.034
		c0.104,0,0.201,0.015,0.291,0.044c0.09,0.03,0.157,0.083,0.202,0.157c0.09,0.075,0.19,0.131,0.303,0.168s0.168,0.131,0.168,0.28
		c0.074,0.045,0.149,0.086,0.225,0.124c0.074,0.037,0.156,0.056,0.246,0.056c0.075,0,0.143-0.008,0.202-0.022
		s0.127-0.022,0.202-0.022c0.074,0,0.13,0.015,0.168,0.045c0.037,0.03,0.078,0.045,0.123,0.045c0.06,0,0.168-0.037,0.325-0.112
		c0.157-0.074,0.235-0.127,0.235-0.156c0-0.03-0.008-0.053-0.022-0.068c-0.015-0.014-0.022-0.037-0.022-0.066v-0.023
		c-0.045-0.014-0.112-0.021-0.201-0.021c-0.12,0-0.229,0.025-0.325,0.078c-0.098,0.053-0.184,0.078-0.258,0.078
		c-0.135,0-0.292-0.048-0.472-0.146c-0.179-0.097-0.269-0.205-0.269-0.325v-0.045c-0.045-0.06-0.112-0.097-0.202-0.112
		c-0.09-0.015-0.176-0.026-0.258-0.034c-0.082-0.007-0.157-0.026-0.225-0.056c-0.066-0.03-0.101-0.09-0.101-0.179
		c0-0.165,0.075-0.25,0.225-0.258c0.149-0.008,0.276-0.011,0.381-0.011c0.09,0,0.168,0.037,0.235,0.112
		c0.067,0.075,0.131,0.161,0.19,0.258c0.06,0.098,0.127,0.184,0.202,0.258c0.074,0.075,0.164,0.112,0.27,0.112
		c0.134,0,0.224-0.037,0.269-0.112c0.045-0.074,0.094-0.16,0.146-0.258c0.053-0.097,0.127-0.183,0.225-0.258
		c0.097-0.075,0.266-0.112,0.505-0.112h0.09c0-0.015,0.011-0.026,0.033-0.034s0.033-0.019,0.033-0.034
		c-0.044-0.09-0.097-0.142-0.156-0.157c-0.061-0.015-0.143-0.022-0.247-0.022c-0.09,0-0.168,0.03-0.235,0.09
		c-0.067,0.06-0.131,0.124-0.19,0.19c-0.061,0.067-0.123,0.131-0.19,0.191c-0.067,0.06-0.146,0.09-0.235,0.09
		c-0.165,0-0.303-0.067-0.415-0.202C108.85,16.218,108.719,16.121,108.569,16.061z M106.327,17.541
		c-0.03,0.03-0.09,0.045-0.18,0.045c-0.12,0-0.198-0.026-0.235-0.078c-0.038-0.053-0.102-0.078-0.19-0.078
		c-0.135,0-0.218,0.037-0.247,0.111c0.06,0.09,0.142,0.135,0.247,0.135c0.015,0,0.029-0.004,0.045-0.012
		c0.015-0.007,0.037-0.011,0.066-0.011h0.022c0.015,0,0.026-0.004,0.034-0.012c0.007-0.007,0.019-0.011,0.033-0.011
		c0.06,0,0.108,0.037,0.146,0.112c0.037,0.075,0.056,0.119,0.056,0.135c0,0.029-0.012,0.063-0.034,0.101
		c-0.021,0.037-0.033,0.078-0.033,0.123v0.045c0.18,0,0.303-0.025,0.37-0.078s0.138-0.161,0.213-0.325
		C106.61,17.653,106.506,17.586,106.327,17.541z M105.9,19.357c-0.045-0.045-0.112-0.067-0.201-0.067c-0.12,0-0.18,0.03-0.18,0.09
		s0.022,0.098,0.067,0.112c0.029,0.015,0.06,0.022,0.09,0.022c0.029,0,0.052-0.008,0.067-0.022c0.015-0.015,0.037-0.022,0.066-0.022
		h0.022c0.015-0.03,0.03-0.045,0.045-0.045s0.022-0.015,0.022-0.045V19.357z M105.564,12.428c0.015,0.015,0.029,0.022,0.045,0.022
		l0.045-0.022H105.564z M106.125,16.083c0-0.06-0.03-0.09-0.09-0.09s-0.123,0.011-0.19,0.034s-0.101,0.071-0.101,0.146
		c0,0.03,0.019,0.052,0.056,0.067c0.037,0.015,0.07,0.022,0.101,0.022c0.06,0,0.102-0.022,0.124-0.067S106.08,16.114,106.125,16.083
		z M105.855,18.349v-0.067c0-0.03-0.008-0.045-0.022-0.045c-0.029,0.015-0.045,0.037-0.045,0.067c0,0.045,0.008,0.067,0.022,0.067
		c0.016,0,0.022-0.004,0.022-0.012C105.833,18.353,105.841,18.349,105.855,18.349z M106.82,15.388
		c-0.016-0.074-0.105-0.134-0.27-0.179s-0.291-0.067-0.381-0.067c-0.165,0-0.247,0.045-0.247,0.135c0,0.03,0.008,0.045,0.022,0.045
		h0.022c0.075,0.03,0.153,0.044,0.235,0.044s0.146,0.038,0.19,0.112c0.075-0.03,0.157-0.034,0.247-0.011
		S106.79,15.463,106.82,15.388z M106.35,19.963c0-0.015,0.003-0.025,0.011-0.033s0.012-0.019,0.012-0.034
		c0-0.045-0.022-0.067-0.067-0.067s-0.083-0.015-0.112-0.045c-0.075,0.03-0.127,0.057-0.157,0.079s-0.067,0.056-0.112,0.101
		c0,0.045,0.037,0.082,0.112,0.112c0.045-0.015,0.097-0.026,0.157-0.034C106.252,20.034,106.305,20.008,106.35,19.963z
		 M107.066,18.304c0-0.045-0.037-0.063-0.111-0.057c-0.075,0.008-0.135,0.004-0.18-0.011c0,0.03-0.016,0.045-0.045,0.045h-0.045
		c-0.075,0.03-0.12,0.078-0.135,0.146s-0.022,0.139-0.022,0.213c-0.03,0.12-0.101,0.213-0.213,0.28s-0.168,0.116-0.168,0.146
		c0,0.045,0.022,0.086,0.067,0.123s0.082,0.056,0.112,0.056c0.029,0,0.056-0.003,0.078-0.011s0.048-0.012,0.078-0.012h0.045
		c0.015-0.015,0.022-0.052,0.022-0.111v-0.18c0-0.104,0.06-0.164,0.18-0.18c0.119-0.015,0.217-0.037,0.291-0.067v-0.022
		c0-0.015,0.008-0.022,0.022-0.022s0.022-0.015,0.022-0.045V18.55c0-0.029,0.015-0.044,0.045-0.044
		c-0.015-0.03-0.019-0.067-0.011-0.112C107.107,18.349,107.097,18.318,107.066,18.304z M107.066,19.582V19.56
		c0-0.03-0.019-0.041-0.056-0.034c-0.037,0.008-0.063,0.004-0.078-0.011c-0.045,0.075-0.109,0.108-0.191,0.101
		c-0.082-0.007-0.123,0.049-0.123,0.168c0.104,0,0.187-0.025,0.247-0.078C106.925,19.653,106.992,19.612,107.066,19.582z
		 M107.426,15.635c-0.016-0.03-0.075-0.048-0.18-0.056c-0.104-0.007-0.135-0.011-0.09-0.011c-0.075,0-0.131,0.049-0.168,0.146
		c-0.037,0.098-0.108,0.161-0.213,0.191c0.029,0.075,0.104,0.112,0.224,0.112c0.135,0,0.266-0.03,0.393-0.089
		s0.191-0.112,0.191-0.157c0-0.015-0.004-0.022-0.012-0.022s-0.011-0.007-0.011-0.022c0-0.015,0.003-0.022,0.011-0.022
		s0.012-0.007,0.012-0.022c-0.016,0-0.022,0.004-0.022,0.011c0,0.008-0.008,0.011-0.022,0.011c-0.03,0-0.045-0.011-0.045-0.034
		c0-0.022-0.016-0.033-0.045-0.033H107.426z M107.381,14.85c-0.09-0.015-0.165-0.037-0.225-0.067
		c-0.06-0.03-0.135-0.052-0.224-0.067v0.044c0,0.075,0.07,0.127,0.213,0.157c0.142,0.03,0.235,0.09,0.28,0.179
		c0.045-0.03,0.101-0.034,0.168-0.011s0.101-0.003,0.101-0.078c-0.03-0.075-0.078-0.112-0.146-0.112S107.426,14.88,107.381,14.85z
		 M107.604,12.877c-0.015-0.015-0.037-0.022-0.066-0.022c-0.045,0-0.067,0.015-0.067,0.045c0.015,0.03,0.052,0.044,0.112,0.044
		c0-0.015,0.003-0.026,0.011-0.033C107.601,12.903,107.604,12.892,107.604,12.877z M109.017,19.447
		c-0.03-0.03-0.075-0.041-0.135-0.033c-0.06,0.007-0.104,0.003-0.134-0.012c0,0.015,0.003,0.022,0.011,0.022
		s0.012,0.008,0.012,0.022c0,0.03-0.012,0.045-0.034,0.045s-0.033,0.008-0.033,0.022l0.045,0.045
		C108.853,19.56,108.942,19.522,109.017,19.447z M109.892,15.433c-0.075,0-0.131-0.022-0.169-0.067
		c-0.037-0.044-0.074-0.093-0.111-0.146c-0.038-0.052-0.083-0.101-0.135-0.146c-0.053-0.044-0.123-0.067-0.213-0.067
		c-0.03,0-0.075,0.026-0.135,0.078c-0.06,0.053-0.12,0.112-0.18,0.18s-0.135,0.146-0.224,0.235v0.045
		c0.119,0,0.22-0.041,0.303-0.124c0.082-0.082,0.175-0.123,0.28-0.123c0.104,0,0.193,0.041,0.269,0.123
		c0.075,0.083,0.164,0.124,0.27,0.124C109.877,15.545,109.892,15.508,109.892,15.433z M109.399,15.814
		c-0.03-0.015-0.045-0.03-0.045-0.045c0-0.015-0.008-0.022-0.022-0.022c-0.045,0-0.067,0.03-0.067,0.09
		c0,0.045,0.015,0.067,0.045,0.067c0.06,0,0.09-0.015,0.09-0.045V15.814z M109.399,20.165c-0.03,0-0.042-0.012-0.034-0.034
		s-0.004-0.033-0.033-0.033l-0.045,0.045l-0.022,0.045v0.022h0.022h0.09c0.015,0,0.022-0.008,0.022-0.022V20.165z M109.937,19.47
		c-0.016-0.06-0.075-0.09-0.18-0.09c-0.075,0-0.127,0.008-0.157,0.022c0,0.045,0.015,0.075,0.045,0.09s0.053,0.037,0.067,0.067
		c0.045-0.03,0.093-0.037,0.146-0.022s0.079,0.008,0.079-0.022V19.47z M110.251,14.693c-0.045-0.03-0.09-0.071-0.135-0.124
		c-0.045-0.052-0.104-0.079-0.179-0.079c-0.016,0-0.03,0.004-0.045,0.011c-0.016,0.008-0.03,0.011-0.045,0.011
		c0,0.15,0.052,0.232,0.157,0.247h0.021c0.03,0,0.057,0.004,0.079,0.011c0.022,0.008,0.048,0.011,0.078,0.011
		c0.045,0,0.067-0.015,0.067-0.044V14.693z M110.565,16.891c-0.03,0-0.042-0.008-0.034-0.022s-0.004-0.022-0.033-0.022h-0.022
		c-0.045,0-0.067-0.015-0.067-0.045c-0.03,0.045-0.082,0.06-0.157,0.045s-0.12,0.015-0.135,0.089c0,0.09,0.037,0.135,0.112,0.135
		h0.135h0.067c0.029-0.015,0.052-0.041,0.067-0.078C110.513,16.955,110.535,16.921,110.565,16.891z M110.565,17.944
		c0-0.029-0.016-0.044-0.045-0.044h-0.112h-0.022c-0.045,0.044-0.098,0.082-0.157,0.111c-0.06,0.03-0.098,0.083-0.112,0.157
		c0.015,0.045,0.045,0.067,0.09,0.067s0.098-0.015,0.157-0.045c0.06-0.029,0.112-0.045,0.157-0.045h0.045h0.022v-0.045
		c0.015-0.029,0.029-0.045,0.044-0.045c-0.029,0-0.041-0.019-0.033-0.056S110.595,17.944,110.565,17.944z M110.632,18.797
		c-0.015-0.06-0.06-0.09-0.134-0.09c-0.03,0-0.061,0.004-0.09,0.012c-0.03,0.008-0.061,0.011-0.09,0.011
		c-0.045,0-0.075-0.007-0.09-0.022c-0.015,0.03-0.026,0.049-0.033,0.057c-0.008,0.007-0.012,0.026-0.012,0.056
		c0.03,0.03,0.071,0.06,0.124,0.09c0.052,0.03,0.078,0.053,0.078,0.067c0.045-0.03,0.09-0.053,0.135-0.067
		S110.602,18.856,110.632,18.797z M110.991,14.222v-0.067c0-0.03-0.016-0.044-0.045-0.044c-0.03,0-0.056,0.003-0.078,0.011
		c-0.022,0.007-0.049,0.011-0.079,0.011h-0.022c-0.03,0.015-0.045,0.06-0.045,0.134h0.045h0.135
		C110.946,14.267,110.975,14.252,110.991,14.222z M111.148,12.899v-0.022c0-0.015-0.008-0.022-0.022-0.022h-0.045h-0.022
		l-0.022,0.045h0.022h0.067H111.148z M111.843,18.506v-0.045c0-0.015-0.007-0.022-0.021-0.022h-0.045
		C111.776,18.483,111.799,18.506,111.843,18.506z M113.593,11.644c-0.016-0.015-0.03-0.022-0.045-0.022
		c-0.016,0-0.022,0.008-0.022,0.022c0,0.015,0.015,0.022,0.045,0.022h0.022V11.644z"/>
	<path fill="#FFFFFF" d="M130.683,4.026C132.235,1.32,134.479,0,136.36,0c2.542,0,4.555,2.013,4.555,5.116
		c0,1.353-0.429,2.937-1.386,4.621c-2.706,4.72-6.865,6.601-10.528,6.601c-0.693,0-1.32-0.066-1.947-0.165l-0.957,1.683
		c-2.047,3.498-0.628,5.842,1.716,5.842c3.399,0,6.436-2.277,8.911-5.148l0.231-0.265c0.495,0.132,1.089,0.66,1.287,1.188
		c-2.839,3.301-6.139,6.337-11.255,6.337c-4.852,0-6.271-4.621-3.861-8.779l1.023-1.782c-2.772-1.452-4.324-4.093-4.324-6.832
		c0-2.311,1.089-4.654,3.531-6.403l1.122,2.013c-1.484,1.155-2.211,2.739-2.211,4.324c0,1.914,1.057,3.829,3.069,4.885
		L130.683,4.026z M129.001,14.06c5.347,0,9.241-5.776,9.241-8.978c0-1.254-0.595-2.112-1.882-2.112
		c-0.957,0-2.079,0.759-3.103,2.508l-4.95,8.582H129.001z"/>
	<path fill="#FFFFFF" d="M153.156,18.284c0.462,0.198,1.057,0.727,1.287,1.188c-2.838,3.301-6.105,6.337-8.944,6.337
		c-1.749,0-2.805-0.924-2.97-2.244c-1.65,1.353-3.367,2.244-4.753,2.244c-2.772,0-3.796-2.344-2.344-4.885l4.819-8.317
		c1.452-2.508,4.026-3.96,5.875-3.96c2.244,0,3.729,2.013,3.597,3.466h1.947l-5.544,9.704c-0.793,1.353-0.363,1.881,0.396,1.881
		c1.519,0,3.928-2.277,6.403-5.148L153.156,18.284z M138.403,21.816c-0.792,1.353-0.363,1.881,0.396,1.881
		c1.419,0,3.465-1.551,5.544-4.818l2.674-4.687c1.684-3.103-1.98-3.928-3.828-0.726L138.403,21.816z"/>
	<path fill="#FFFFFF" d="M161.637,18.284c0.462,0.198,1.056,0.727,1.287,1.188c-2.839,3.301-6.106,6.337-8.944,6.337
		c-2.772,0-3.796-2.344-2.344-4.885l11.09-19.209h3.433l-11.552,20.101c-0.792,1.353-0.363,1.881,0.396,1.881
		c1.518,0,3.927-2.277,6.402-5.148L161.637,18.284z"/>
</g>
<path fill="#FFFFFF" d="M25.677,12.917c-15.464,0-21.816,9.563-21.816,9.563V13.6c0,0,2.5-3.568,10.115-3.568h12.161L25.677,12.917z
	"/>
</svg>
