<?xml version="1.0" encoding="utf-8"?>
<!-- Generator: Adobe Illustrator 17.0.2, SVG Export Plug-In . SVG Version: 6.00 Build 0)  -->
<!DOCTYPE svg PUBLIC "-//W3C//DTD SVG 1.1//EN" "http://www.w3.org/Graphics/SVG/1.1/DTD/svg11.dtd">
<svg version="1.1" id="Layer_1" xmlns="http://www.w3.org/2000/svg" xmlns:xlink="http://www.w3.org/1999/xlink" x="0px" y="0px"
	 width="102.005px" height="44.986px" viewBox="0 0 102.005 44.986" enable-background="new 0 0 102.005 44.986"
	 xml:space="preserve">
<g>
	<path fill="#FFFFFF" d="M79.117,6.495c0.404,0,0.864,0.065,1.368,0.194c3.865,0.99,9.388,2.49,9.443,2.505l0.015,0.004
		c-0.592,0.867-2.227,3.176-3.72,5.264c-0.777,0.957-2.124,2.194-2.749,2.399l-0.372,0.123c-1.376,0.455-1.965,0.64-2.728,0.64
		c-0.194,0-0.398-0.012-0.625-0.036c-1.299-0.14-3.212-0.717-3.838-0.927l-0.073-0.025l-0.074-0.021l-7.167-2.007
		c-0.548-0.2-1.987-0.651-3.807-0.651c-3.613,0-6.594,1.776-8.395,5.002c-1.581,2.833-1.52,5.98,0.171,8.862
		c1.895,3.228,5.807,5.756,8.907,5.756l0.113-0.001c0.326-0.006,0.649-0.01,0.975-0.015c0.961-0.013,1.966-0.026,3.135-0.089
		c-1.932,1.768-2.736,2.099-3.646,2.099c0,0-0.001,0-0.001,0c-1.972-0.027-2.98-0.098-4.117-0.472
		c-1.287-0.423-5.217-1.795-6.282-2.168c-0.748-0.401-2.221-0.976-4.51-0.976c-0.11,0-0.221,0.001-0.335,0.004
		c-0.309,0.008-0.672,0.008-1.076,0.008l-0.2,0l-0.215,0c-2.294,0-4.793,0.052-7.187,0.472c0.172-0.098,0.342-0.203,0.511-0.315
		c1.966-1.314,6.177-5.276,6.838-5.902c0.675-0.598,4.269-4.031,4.038-9.047c-0.123-2.667-0.665-4.04-1.024-4.949
		c-0.22-0.557-0.244-0.628-0.235-0.925c0.014-0.479,0.74-1.529,2.806-1.529l0.094,0.001c4.099,0.062,9.429,0.49,10.41,0.762
		c0.224,0.067,0.469,0.153,0.73,0.244c1.054,0.366,2.497,0.866,4.011,0.866c0.832,0,1.613-0.15,2.321-0.445
		c1.8-0.751,3.078-1.472,4.282-2.934c0.577-0.701,1.009-1.275,1.231-1.577C78.252,6.625,78.548,6.495,79.117,6.495 M98.975,27.407
		c0.022,0.142,0.031,0.281,0.032,0.453c-0.103,0.037-0.252,0.071-0.444,0.074c-0.362,0.006-0.872,0.008-1.458,0.008
		C97.882,27.72,98.552,27.528,98.975,27.407 M37.798,33.757c-3.745,1.745-4.911,2.45-6.798,3.638c-1.181,0.743-2.299,1.12-3.32,1.12
		c-0.537,0-1.045-0.103-1.555-0.315c-2.812-1.169-5.791-2.952-5.818-2.968l-0.808-0.487c0.456,0.052,0.934,0.082,1.432,0.082
		c0.152,0,0.305-0.003,0.461-0.009c3.07-0.114,14.047-0.909,15.363-1.004C36.984,33.814,37.346,33.802,37.798,33.757 M79.117,3.495
		c-2.35,0-3.262,1.236-3.262,1.236s-0.48,0.681-1.261,1.628c-0.781,0.947-1.561,1.421-3.122,2.072
		c-0.364,0.152-0.758,0.214-1.165,0.214c-1.337,0-2.819-0.666-3.878-0.984c-1.381-0.414-7.325-0.829-11.227-0.888
		c-0.047-0.001-0.093-0.001-0.139-0.001c-3.81,0-5.745,2.395-5.804,4.442c-0.06,2.073,1.081,2.191,1.261,6.099
		c0.18,3.908-3.062,6.691-3.062,6.691s-4.623,4.382-6.484,5.626c-1.699,1.135-3.899,1.185-4.269,1.185c-0.035,0-0.054,0-0.054,0
		s-12.188,0.888-15.37,1.007c-0.118,0.004-0.234,0.006-0.349,0.006c-2.994,0-5.054-1.428-5.054-1.428s-8.766-4.974-11.527-6.632
		c-0.823-0.494-1.507-0.667-2.062-0.667c-1.308,0-1.9,0.963-1.9,0.963c-1.201,1.895,0.781,3.138,0.781,3.138l17.591,10.599
		c0,0,3.152,1.895,6.214,3.168c0.933,0.388,1.843,0.545,2.707,0.545c1.973,0,3.707-0.819,4.918-1.581
		c1.741-1.095,2.792-1.747,6.544-3.494c3.086-1.437,7.39-1.472,10.174-1.472c0.142,0,0.28,0,0.414,0c0.432,0,0.82-0.001,1.149-0.009
		c0.09-0.002,0.178-0.003,0.265-0.003c2.245,0,3.248,0.714,3.248,0.714s5.073,1.776,6.604,2.28c1.531,0.503,2.822,0.592,5.013,0.622
		c0.03,0,0.059,0.001,0.088,0.001c2.146,0,3.729-1.07,6.276-3.494c2.041-1.943,4.025-2.146,4.767-2.146
		c0.197,0,0.306,0.014,0.306,0.014s2.522,0.296,3.842,0.355c0.499,0.022,1.04,0.087,1.641,0.087c0.99,0,2.14-0.176,3.523-1.005
		c2.221-1.332,4.443-1.48,4.443-1.48s3.727,0.038,6.186,0.038c0.615,0,1.15-0.002,1.529-0.008c1.891-0.03,3.362-1.184,3.392-2.605
		c0.03-1.421-0.12-1.865-0.6-3.227c-0.245-0.696-0.969-0.866-1.618-0.866c-0.621,0-1.173,0.156-1.173,0.156
		s-5.554,1.599-7.565,2.132c-2.011,0.533-5.373,1.332-12.458,2.724c-7.085,1.392-9.967,1.273-13.059,1.332
		c-0.018,0-0.037,0.001-0.055,0.001c-3.112,0-9.383-4.917-6.459-10.156c1.568-2.809,3.92-3.465,5.775-3.465
		c1.626,0,2.87,0.504,2.87,0.504l7.295,2.043c0,0,2.552,0.859,4.473,1.066c0.339,0.037,0.651,0.054,0.947,0.054
		c1.383,0,2.404-0.376,4.036-0.912c1.981-0.651,4.203-3.434,4.203-3.434s3.662-5.122,4.083-5.803c0.42-0.681,0.63-1.184,0.33-2.457
		S90.715,6.3,90.715,6.3s-5.553-1.51-9.486-2.517C80.423,3.577,79.722,3.495,79.117,3.495L79.117,3.495z"/>
</g>
</svg>
