<?xml version="1.0" encoding="utf-8"?>
<!-- Generator: Adobe Illustrator 17.1.0, SVG Export Plug-In . SVG Version: 6.00 Build 0)  -->
<!DOCTYPE svg PUBLIC "-//W3C//DTD SVG 1.1//EN" "http://www.w3.org/Graphics/SVG/1.1/DTD/svg11.dtd">
<svg version="1.1" id="Layer_1" xmlns="http://www.w3.org/2000/svg" xmlns:xlink="http://www.w3.org/1999/xlink" x="0px" y="0px"
	 viewBox="-2.999 0.495 108.006 44.019" enable-background="new -2.999 0.495 108.006 44.019" xml:space="preserve">
<g>
	<path fill="#FFFFFF" d="M79.117,3.495c0.605,0,1.306,0.082,2.112,0.288C85.162,4.79,90.715,6.3,90.715,6.3s2.014,0.447,2.314,1.72
		c0.3,1.273,0.09,1.776-0.33,2.457c-0.421,0.681-4.083,5.803-4.083,5.803s-2.222,2.783-4.203,3.434
		c-1.632,0.536-2.653,0.912-4.036,0.912c-0.296,0-0.608-0.017-0.947-0.054c-1.921-0.207-4.473-1.066-4.473-1.066l-7.295-2.043
		c0,0-1.244-0.504-2.87-0.504c-1.855,0-4.207,0.656-5.775,3.465c-2.924,5.239,3.347,10.156,6.459,10.156
		c0.018,0,0.037-0.001,0.055-0.001c3.092-0.059,5.974,0.06,13.059-1.332c7.085-1.392,10.447-2.191,12.458-2.724
		c2.011-0.533,7.565-2.132,7.565-2.132s0.552-0.156,1.173-0.156c0.649,0,1.373,0.17,1.618,0.866c0.48,1.362,0.63,1.806,0.6,3.227
		c-0.03,1.421-1.501,2.575-3.392,2.605c-0.379,0.006-0.914,0.008-1.529,0.008c-2.459,0-6.186-0.038-6.186-0.038
		s-2.222,0.148-4.443,1.48c-1.383,0.829-2.533,1.005-3.523,1.005c-0.601,0-1.142-0.065-1.641-0.087
		c-1.32-0.059-3.842-0.355-3.842-0.355s-0.109-0.014-0.306-0.014c-0.742,0-2.726,0.203-4.767,2.146
		c-2.547,2.424-4.13,3.494-6.276,3.494c-0.029,0-0.058-0.001-0.088-0.001c-2.191-0.03-3.482-0.119-5.013-0.622
		c-1.531-0.504-6.604-2.28-6.604-2.28s-1.003-0.714-3.248-0.714c-0.087,0-0.175,0.001-0.265,0.003
		c-0.329,0.008-0.717,0.009-1.149,0.009c-0.134,0-0.272,0-0.414,0c-2.784,0-7.088,0.035-10.174,1.472
		c-3.752,1.747-4.803,2.399-6.544,3.494c-1.211,0.762-2.945,1.581-4.918,1.581c-0.864,0-1.774-0.157-2.707-0.545
		c-3.062-1.273-6.214-3.168-6.214-3.168L1.17,27.202c0,0-1.982-1.243-0.781-3.138c0,0,0.592-0.963,1.9-0.963
		c0.555,0,1.239,0.173,2.062,0.667C7.112,25.426,15.878,30.4,15.878,30.4s2.06,1.428,5.054,1.428c0.115,0,0.231-0.002,0.349-0.006
		c3.182-0.119,15.37-1.007,15.37-1.007s0.019,0,0.054,0c0.37,0,2.57-0.05,4.269-1.185c1.861-1.244,6.484-5.626,6.484-5.626
		s3.242-2.783,3.062-6.691c-0.18-3.908-1.321-4.026-1.261-6.099c0.059-2.047,1.994-4.442,5.804-4.442c0.046,0,0.092,0,0.139,0.001
		c3.902,0.059,9.846,0.474,11.227,0.888c1.059,0.318,2.541,0.984,3.878,0.984c0.407,0,0.801-0.062,1.165-0.214
		c1.561-0.651,2.341-1.125,3.122-2.072c0.781-0.947,1.261-1.628,1.261-1.628S76.767,3.495,79.117,3.495 M79.117,0.495
		c-3.678,0-5.374,2.045-5.676,2.455l-0.019,0.026l-0.019,0.027C73.4,3.006,72.968,3.615,72.28,4.45
		c-0.34,0.412-0.627,0.652-1.917,1.193c-0.012,0.001-0.031,0.002-0.056,0.002c-0.502,0-1.357-0.297-2.043-0.535
		c-0.347-0.12-0.674-0.233-0.972-0.322c-2.041-0.612-8.963-0.968-12.044-1.014l-0.184-0.001c-5.58,0-8.7,3.79-8.803,7.356
		c-0.045,1.538,0.342,2.516,0.652,3.302c0.275,0.696,0.534,1.353,0.611,3.022c0.108,2.341-1.998,4.258-2.019,4.277l-0.056,0.048
		l-0.054,0.051c-1.717,1.627-4.887,4.507-6.087,5.309c-0.834,0.557-2.161,0.679-2.602,0.679h-0.054h-0.109l-0.109,0.008
		c-0.121,0.009-12.171,0.885-15.264,1.001c-0.074,0.002-0.156,0.004-0.237,0.004c-1.935,0-3.332-0.885-3.345-0.894l-0.111-0.077
		l-0.118-0.067c-0.087-0.05-8.765-4.975-11.463-6.595c-1.211-0.727-2.424-1.095-3.606-1.095c-2.203,0-3.777,1.288-4.456,2.392
		c-0.96,1.515-0.919,2.934-0.711,3.851c0.468,2.065,2.126,3.194,2.453,3.4l0.023,0.014l0.023,0.014l17.591,10.599
		c0.139,0.084,3.381,2.026,6.611,3.369c1.236,0.514,2.535,0.775,3.859,0.775c2.17,0,4.362-0.687,6.516-2.042
		c1.661-1.045,2.577-1.621,6.213-3.314c2.559-1.192,6.689-1.192,8.908-1.192h0.414c0.46,0,0.872-0.001,1.222-0.01l0.192-0.002
		c0.871,0,1.383,0.152,1.581,0.226l0.336,0.131l0.34,0.188c0.208,0.073,5.117,1.791,6.657,2.298c2.038,0.67,3.735,0.742,5.91,0.772
		l0.129,0.001c3.513,0,5.952-2.044,8.344-4.321c1.319-1.256,2.48-1.319,2.699-1.319c-0.039-0.003-0.076-0.01-0.076-0.01
		c0.14,0.017,2.678,0.313,4.09,0.376c0.156,0.007,0.314,0.019,0.479,0.031c0.377,0.028,0.805,0.059,1.296,0.059
		c1.826,0,3.436-0.455,5.065-1.432c1.322-0.793,2.681-1.007,3.036-1.052c0.752,0.007,3.889,0.036,6.05,0.036
		c0.634,0,1.186-0.002,1.576-0.008c3.493-0.055,6.28-2.489,6.344-5.541c0.04-1.9-0.222-2.732-0.77-4.287
		c-0.632-1.796-2.295-2.869-4.447-2.869c-0.962,0-1.766,0.206-1.989,0.269c-0.069,0.02-5.56,1.6-7.518,2.119
		c-1.69,0.448-4.799,1.213-12.268,2.68c-6.057,1.19-8.837,1.226-11.525,1.261c-0.329,0.004-0.656,0.009-0.984,0.015H65.49
		l-0.03,0.001c-0.663-0.021-2.721-1.083-3.725-2.807c-0.774-1.329-0.459-2.241-0.099-2.887c0.744-1.333,1.717-1.927,3.155-1.927
		c0.98,0,1.766,0.293,1.774,0.296l0.156,0.063l0.132,0.033l7.225,2.023c0.531,0.176,2.979,0.958,5.031,1.179
		c0.438,0.048,0.854,0.071,1.268,0.071c1.758,0,3.078-0.436,4.606-0.941l0.366-0.121c2.695-0.886,5.147-3.831,5.611-4.412
		l0.05-0.062l0.046-0.065c0.873-1.221,3.755-5.259,4.194-5.97c0.787-1.276,1.206-2.567,0.698-4.723
		c-0.67-2.845-3.7-3.75-4.501-3.941c-0.585-0.159-5.772-1.566-9.475-2.514C80.982,0.623,80.021,0.495,79.117,0.495L79.117,0.495z"/>
</g>
</svg>
