<?xml version="1.0" encoding="utf-8"?>
<!-- Generator: Adobe Illustrator 17.1.0, SVG Export Plug-In . SVG Version: 6.00 Build 0)  -->
<!DOCTYPE svg PUBLIC "-//W3C//DTD SVG 1.1//EN" "http://www.w3.org/Graphics/SVG/1.1/DTD/svg11.dtd">
<svg version="1.1" id="Layer_1" xmlns="http://www.w3.org/2000/svg" xmlns:xlink="http://www.w3.org/1999/xlink" x="0px" y="0px"
	 viewBox="0 0 108.988 68.999" enable-background="new 0 0 108.988 68.999" xml:space="preserve">
<path fill="#FFFFFF" d="M88.41,3c1.716,0,3.209,0.141,4.296,0.802c1.494,0.908,12.848,5.223,13.267,19.432
	c0.474,16.091-11.007,18.197-13.886,19.215C89.208,43.466,54.255,55.38,54.255,55.38s-1.685,0.947-3.441,0.947
	c-0.878,0-1.775-0.237-2.487-0.947c-2.138-2.131-2.138-3.971-0.097-7.071c2.041-3.099,6.415-8.039,6.026-11.817
	c-0.382-3.712-2.642-11.727-9.914-11.728c-0.128,0-0.257,0.002-0.388,0.008c-7.581,0.291-8.553,5.23-8.261,6.877
	c0.292,1.647,1.166,3.681,1.166,3.681s2.746,5.448,3.147,6.538c0.401,1.09,0.729,1.743,0.401,2.397
	c-0.328,0.654-0.656,1.598-2.223,1.743c-1.567,0.145-5.175,2.397-5.175,5.23c0,2.833,0.693,3.414,0.693,4.867
	c0,1.453-0.765,4.468-3.936,5.521c-3.171,1.053-7.253,2.325-9.039,3.233c-1.342,0.682-3.775,1.139-5.891,1.139
	c-0.7,0-1.365-0.05-1.945-0.158c-2.333-0.436-4.264-1.889-4.301-4.322c-0.036-2.434-0.219-4.431,0.729-6.647
	c0.948-2.216,1.348-0.654,1.348-5.848c0-5.194-1.239-5.267-2.333-6.32c-1.093-1.053-5.358-2.361-5.321-5.267
	c0.036-2.906-0.292-5.012,1.02-6.72c1.312-1.707,2.661-3.451,5.54-3.669c2.879-0.218,4.191-1.308,5.467-1.707
	c1.276-0.4,25.659-9.117,25.659-9.117s4.483-2.034,8.018-2.034c3.535,0,6.925,0.508,9.294,1.78c2.369,1.271,5.321,2.107,8.201,2.143
	c0.048,0.001,0.097,0.001,0.145,0.001c2.859,0,6.517-1.048,8.238-2.834c1.749-1.816,3.426-3.051,4.301-6.175
	c0.875-3.124,4.957-5.993,7.508-6.066C87.096,3.02,87.769,3,88.41,3 M88.411,0c-0.649,0-1.329,0.019-2.03,0.039l-0.065,0.002
	c-3.729,0.106-9.046,3.735-10.312,8.256c-0.522,1.863-1.387,2.721-2.696,4.019c-0.288,0.286-0.581,0.577-0.876,0.883
	c-1,1.038-3.783,1.915-6.077,1.915l-0.107-0.001c-2.271-0.029-4.757-0.68-6.82-1.787c-2.642-1.418-6.246-2.136-10.712-2.136
	c-3.846,0-8.232,1.848-9.137,2.248c-9.756,3.488-24.502,8.745-25.437,9.04c-0.57,0.178-1.071,0.413-1.555,0.641
	c-0.905,0.425-1.761,0.826-3.241,0.938c-4.224,0.32-6.229,2.928-7.692,4.832c-1.701,2.213-1.673,4.668-1.646,7.042
	c0.005,0.465,0.011,0.954,0.005,1.469c-0.049,3.869,3.466,5.872,5.355,6.948c0.325,0.185,0.767,0.437,0.922,0.553
	c0.245,0.233,0.474,0.418,0.659,0.568c0.353,0.286,0.717,0.581,0.717,3.555c0,1.896-0.061,2.611-0.103,2.877
	c-0.002,0.002-0.003,0.005-0.005,0.007c-0.224,0.317-0.599,0.848-0.999,1.784c-1.089,2.546-1.037,4.826-0.987,7.031
	c0.006,0.275,0.013,0.554,0.017,0.84c0.054,3.634,2.704,6.471,6.749,7.227c0.744,0.139,1.583,0.209,2.496,0.209
	c2.654,0,5.5-0.575,7.25-1.465c1.274-0.648,4.403-1.673,6.917-2.498c0.585-0.192,1.16-0.38,1.708-0.562
	c4.138-1.375,5.991-5.193,5.991-8.368c0-0.997-0.2-1.753-0.361-2.36c-0.17-0.642-0.331-1.248-0.331-2.507
	c0-0.756,1.679-2.064,2.497-2.247c3.093-0.306,4.131-2.448,4.523-3.257l0.061-0.124c0.878-1.749,0.294-3.293-0.133-4.421
	l-0.134-0.358c-0.418-1.136-2.527-5.351-3.238-6.763c-0.227-0.544-0.758-1.936-0.936-2.943c0,0,0,0,0,0
	c0.002,0-0.045-0.852,0.685-1.694c0.867-1.002,2.505-1.576,4.737-1.662c0.092-0.004,0.182-0.005,0.272-0.005
	c1.336,0,3.305,0.316,4.989,3.047c1.174,1.904,1.773,4.341,1.943,5.988c0.193,1.871-2.43,5.493-3.998,7.657
	c-0.565,0.78-1.098,1.517-1.55,2.202c-3.693,5.608-1.492,8.876,0.485,10.846c1.196,1.192,2.789,1.822,4.605,1.822
	c2.066,0,3.896-0.809,4.633-1.184c3.26-1.111,34.866-11.886,37.639-12.865c0.204-0.072,0.457-0.149,0.75-0.24
	c3.868-1.195,15.638-4.831,15.136-21.892c-0.286-9.726-5.079-17.017-14.245-21.669c-0.203-0.103-0.364-0.182-0.471-0.244
	C92.469,0.147,90.298,0,88.411,0L88.411,0z"/>
</svg>
