<?xml version="1.0" encoding="utf-8"?>
<!-- Generator: Adobe Illustrator 17.0.2, SVG Export Plug-In . SVG Version: 6.00 Build 0)  -->
<!DOCTYPE svg PUBLIC "-//W3C//DTD SVG 1.1//EN" "http://www.w3.org/Graphics/SVG/1.1/DTD/svg11.dtd">
<svg version="1.1" id="Layer_1" xmlns="http://www.w3.org/2000/svg" xmlns:xlink="http://www.w3.org/1999/xlink" x="0px" y="0px"
	 width="100.021px" height="70.981px" viewBox="0 0 100.021 70.981" enable-background="new 0 0 100.021 70.981"
	 xml:space="preserve">
<g>
	<path fill="#FFFFFF" d="M18.16,3.049c0.407,0.635,0.347,1.034-0.609,2.869c-1.655,3.176-6.254,13.681-7.098,16.085
		c-0.813,2.314-2.972,8.461,2.153,11.365c0.957,0.542,2.979,1.452,5.773,1.452c3.708,0,10.637-1.729,15.373-13.312l0.01-0.026
		l0.01-0.026c0.086-0.221,0.165-0.435,0.239-0.643c0.247,0.653,0.552,1.33,0.953,1.984c0.171,0.278,0.343,0.578,0.522,0.89
		c1.519,2.639,4.061,7.055,10.173,7.055c0.177,0,0.357-0.004,0.541-0.012c4.132-0.178,7.121-2.542,9.304-4.268
		c0.614-0.486,1.44-1.139,1.831-1.327c0.042-0.001,0.084-0.001,0.124-0.001c0.837,0,1.04,0.092,1.714,0.395
		c0.344,0.155,0.772,0.348,1.313,0.54c0.309,0.11,1.193,0.483,2.129,0.877c4.801,2.024,9.716,4.026,12.431,4.337l0.203,0.023
		c0.974,0.112,1.978,0.227,2.986,0.25c-3.838,1.119-6.925,2.029-7.204,2.112c-2.873,0.802-10.819,2.96-13.058,3.312
		c-0.479,0.075-0.968,0.156-1.461,0.237c-1.94,0.319-3.946,0.649-5.293,0.649c-0.22,0-0.409-0.009-0.561-0.027
		c-1.073-0.126-1.884-0.365-2.669-0.596c-0.432-0.127-0.84-0.248-1.269-0.342c-0.142-0.031-0.282-0.067-0.425-0.103
		c-0.776-0.194-1.838-0.46-3.58-0.46c-0.394,0-0.817,0.014-1.256,0.041c-0.355,0.022-0.721,0.048-1.095,0.075
		c-0.95,0.068-1.933,0.139-2.853,0.139c-1.149,0-2.002-0.11-2.61-0.336c-0.53-0.197-0.911-0.365-1.247-0.513
		c-0.721-0.318-1.467-0.647-2.488-0.647c-0.778,0-1.459,0.203-1.965,0.38c-1.603,0.561-1.804,0.663-4.257,1.905
		c-1.999,1.012-3.572,1.384-3.575,1.385l-0.102,0.023l-0.1,0.03c-0.036,0.011-3.646,1.086-5.12,1.444l-0.18,0.043
		c-1.156,0.277-3.092,0.74-4.069,2.662c-1.041,2.047-0.133,4.225,0.166,4.94c1.015,2.434,1.087,2.844,1.355,4.371l0.064,0.362
		c0.071,0.4,0.167,0.862,0.27,1.356c0.181,0.865,0.541,2.586,0.514,3.345c-0.668,0.883-2.336,2.888-3.697,4.498
		c-1.073-0.47-2.316-0.988-2.767-1.175c-0.408-0.208-1.079-0.468-1.878-0.468c-1.104,0-2.123,0.493-2.796,1.352
		c-0.003,0.003-0.005,0.007-0.008,0.01l0.132-44.243l0.031,0.005l-0.031-0.187c0.009-0.076,0.033-0.201,0.091-0.301
		c0.05-0.085,5.799-8.95,13.814-13.284l0.077-0.04l0.094-0.06C17.475,3.301,17.862,3.131,18.16,3.049 M95.248,16.476
		c0.14,0,0.267,0.022,0.39,0.068c0.838,0.313,1.467,2.327,1.374,4.397c-0.064,1.418-0.915,5.637-3.891,6.396
		c-1.655,0.423-4.873,1.33-8.352,2.329c0.572-0.409,1.123-0.886,1.659-1.434c2.562-2.622,4.568-5.777,6.132-9.646
		C93.007,17.482,94.288,16.476,95.248,16.476 M18.447,0c-1.391,0-2.816,0.913-2.816,0.913C7.329,5.402,1.222,14.342,0.649,15.331
		s-0.496,1.978-0.496,1.978L0,68.554c0,0,2.023,1.217,3.626,2.206c0.251,0.155,0.462,0.22,0.639,0.22
		c0.953,0,0.926-1.894,0.926-1.894s0-3.272,0-4.87c0-0.819,0.32-1.018,0.633-1.018c0.298,0,0.588,0.181,0.588,0.181
		s3.13,1.294,4.122,1.788c0.226,0.113,0.419,0.156,0.581,0.156c0.55,0,0.755-0.499,0.755-0.499s4.122-4.832,4.962-6.049
		s-0.153-4.717-0.496-6.658c-0.344-1.94-0.382-2.435-1.603-5.364c-1.221-2.929,0.458-3.196,2.023-3.576s5.268-1.484,5.268-1.484
		s1.87-0.419,4.275-1.636c2.405-1.217,2.481-1.255,3.894-1.75c0.416-0.146,0.709-0.212,0.973-0.212c0.634,0,1.102,0.382,2.691,0.973
		c1.084,0.403,2.353,0.524,3.655,0.524c1.403,0,2.845-0.14,4.132-0.219c0.395-0.024,0.75-0.035,1.072-0.035
		c1.703,0,2.489,0.3,3.356,0.492c1.031,0.228,2.29,0.761,4.237,0.989c0.278,0.033,0.583,0.047,0.911,0.047
		c1.966,0,4.733-0.531,7.22-0.922c2.901-0.457,13.398-3.386,13.398-3.386s17.406-5.136,22.025-6.315s6.031-6.619,6.146-9.168
		c0.115-2.549-0.573-6.315-3.321-7.342c-0.473-0.177-0.957-0.258-1.44-0.258c-2.323,0-4.616,1.876-5.469,3.986
		c-1.031,2.549-2.634,5.745-5.497,8.674c-1.892,1.936-3.718,2.426-5.697,2.426c-1.015,0-2.071-0.129-3.197-0.258
		c-3.321-0.381-12.291-4.489-13.894-5.06c-1.512-0.538-1.971-1.11-4.034-1.11c-0.125,0-0.257,0.002-0.394,0.006
		c-2.405,0.076-5.688,5.364-10.993,5.592c-0.14,0.006-0.277,0.009-0.412,0.009c-4.982,0-6.615-4.033-8.139-6.514
		c-1.541-2.51-1.342-6.051-3.376-6.051c-0.032,0-0.064,0.001-0.097,0.003c-2.137,0.114-1.68,1.598-3.073,5.193
		C27.225,29.546,22.167,31.82,18.38,31.82c-1.82,0-3.347-0.525-4.294-1.062c-2.92-1.655-1.603-5.478-0.802-7.761
		c0.802-2.283,5.382-12.725,6.928-15.693c1.546-2.967,1.603-4.337,0.115-6.391C19.83,0.228,19.143,0,18.447,0L18.447,0z"/>
</g>
</svg>
