<?xml version="1.0" encoding="utf-8"?>
<!-- Generator: Adobe Illustrator 17.1.0, SVG Export Plug-In . SVG Version: 6.00 Build 0)  -->
<!DOCTYPE svg PUBLIC "-//W3C//DTD SVG 1.1//EN" "http://www.w3.org/Graphics/SVG/1.1/DTD/svg11.dtd">
<svg version="1.1" id="Layer_1" xmlns="http://www.w3.org/2000/svg" xmlns:xlink="http://www.w3.org/1999/xlink" x="0px" y="0px"
	 viewBox="-3.005 -3.5 106.027 76.98" enable-background="new -3.005 -3.5 106.027 76.98" xml:space="preserve">
<g>
	<path fill="#FFFFFF" d="M18.447-0.5c0.696,0,1.383,0.228,1.88,0.913c1.488,2.054,1.431,3.424-0.115,6.391
		c-1.546,2.968-6.126,13.41-6.928,15.693c-0.801,2.283-2.118,6.106,0.802,7.761c0.947,0.537,2.474,1.062,4.294,1.062
		c3.787,0,8.845-2.274,12.596-11.449c1.393-3.595,0.936-5.079,3.073-5.193c0.033-0.002,0.065-0.003,0.097-0.003
		c2.034,0,1.835,3.541,3.376,6.051c1.524,2.481,3.157,6.514,8.139,6.514c0.135,0,0.272-0.003,0.412-0.009
		c5.305-0.228,8.588-5.516,10.993-5.592c0.137-0.004,0.269-0.006,0.394-0.006c2.063,0,2.522,0.572,4.034,1.11
		c1.603,0.571,10.573,4.679,13.894,5.06c1.126,0.129,2.182,0.258,3.197,0.258c1.979,0,3.805-0.49,5.697-2.426
		c2.863-2.929,4.466-6.125,5.497-8.674c0.853-2.11,3.146-3.986,5.469-3.986c0.483,0,0.967,0.081,1.44,0.258
		c2.748,1.027,3.436,4.793,3.321,7.342c-0.115,2.549-1.527,7.989-6.146,9.168c-4.619,1.179-22.025,6.315-22.025,6.315
		s-10.497,2.929-13.398,3.386c-2.487,0.391-5.254,0.922-7.22,0.922c-0.328,0-0.633-0.014-0.911-0.047
		c-1.947-0.228-3.206-0.761-4.237-0.989c-0.867-0.192-1.653-0.492-3.356-0.492c-0.322,0-0.677,0.011-1.072,0.035
		c-1.287,0.079-2.729,0.219-4.132,0.219c-1.302,0-2.571-0.121-3.655-0.524c-1.589-0.591-2.057-0.973-2.691-0.973
		c-0.264,0-0.557,0.066-0.973,0.212c-1.413,0.495-1.489,0.533-3.894,1.75c-2.405,1.217-4.275,1.636-4.275,1.636
		s-3.703,1.104-5.268,1.484c-1.565,0.38-3.244,0.647-2.023,3.576c1.221,2.929,1.259,3.424,1.603,5.364
		c0.343,1.941,1.336,5.441,0.496,6.658c-0.84,1.217-4.962,6.049-4.962,6.049s-0.205,0.499-0.755,0.499
		c-0.162,0-0.355-0.043-0.581-0.156c-0.992-0.494-4.122-1.788-4.122-1.788s-0.29-0.181-0.588-0.181
		c-0.313,0-0.633,0.199-0.633,1.018c0,1.598,0,4.87,0,4.87s0.027,1.894-0.926,1.894c-0.177,0-0.388-0.065-0.639-0.22
		C2.023,69.271,0,68.054,0,68.054l0.153-51.245c0,0-0.077-0.989,0.496-1.978c0.573-0.989,6.68-9.929,14.982-14.418
		C15.631,0.413,17.056-0.5,18.447-0.5 M18.447-3.5c-1.995,0-3.778,0.985-4.325,1.318C4.545,3.035-1.889,13.228-1.947,13.327
		c-0.871,1.503-0.919,2.987-0.9,3.541L-3,68.045l-0.005,1.702l1.459,0.877c0.004,0.002,2.008,1.208,3.597,2.188
		c0.716,0.442,1.461,0.667,2.214,0.667c0.982,0,1.906-0.388,2.6-1.093c1.228-1.245,1.336-3.103,1.325-3.844l0-1.65
		c0.433,0.19,0.795,0.354,1.006,0.459c0.623,0.312,1.27,0.471,1.918,0.471c1.462,0,2.589-0.809,3.208-1.752
		c0.983-1.154,4.152-4.896,4.978-6.092c1.409-2.041,0.78-5.05,0.225-7.705c-0.09-0.43-0.174-0.831-0.236-1.179l-0.063-0.356
		c-0.321-1.826-0.498-2.652-1.544-5.201c1.582-0.399,4.564-1.282,5.114-1.445c0.521-0.126,2.452-0.643,4.856-1.859
		c2.243-1.135,2.3-1.164,3.44-1.563c0.048,0.021,0.096,0.042,0.141,0.062c0.372,0.164,0.881,0.389,1.577,0.648
		c1.307,0.486,2.801,0.712,4.701,0.712c1.137,0,2.28-0.082,3.288-0.154c0.351-0.025,0.695-0.05,1.028-0.07
		c0.326-0.02,0.621-0.029,0.888-0.029c1.001,0,1.496,0.124,2.122,0.281c0.197,0.049,0.389,0.097,0.585,0.14
		c0.229,0.051,0.527,0.138,0.872,0.24c0.88,0.259,2.085,0.615,3.665,0.8c0.38,0.045,0.794,0.067,1.26,0.067
		c1.836,0,4.086-0.37,6.262-0.728c0.48-0.079,0.957-0.157,1.424-0.231c2.988-0.471,12.647-3.155,13.738-3.46
		c0.216-0.063,17.448-5.146,21.961-6.298c2.855-0.729,5.167-2.665,6.685-5.598c1.454-2.81,1.681-5.564,1.716-6.341
		c0.178-3.955-1.112-8.734-5.268-10.287c-0.794-0.297-1.632-0.448-2.49-0.448c-3.408,0-6.877,2.465-8.25,5.862
		c-0.808,1.998-2.191,4.97-4.861,7.701c-1.245,1.274-2.245,1.523-3.552,1.523c-0.781,0-1.689-0.104-2.649-0.215l-0.206-0.024
		c-2.087-0.239-8.183-2.809-10.786-3.907c-1.188-0.501-1.973-0.832-2.443-0.999c-0.312-0.111-0.567-0.226-0.862-0.359
		c-1.163-0.524-2.21-0.925-4.179-0.925c-0.153,0-0.314,0.002-0.482,0.007c-1.969,0.062-3.536,1.302-5.196,2.614
		c-1.71,1.352-3.648,2.885-5.839,2.979c-0.096,0.004-0.19,0.006-0.283,0.006c-2.514,0-3.528-1.538-4.973-4.048
		c-0.209-0.363-0.411-0.712-0.61-1.037c-0.386-0.629-0.654-1.518-0.912-2.377c-0.537-1.784-1.535-5.103-5.02-5.103
		c-0.092,0-0.184,0.003-0.278,0.008c-3.623,0.193-4.399,2.915-4.913,4.716c-0.193,0.676-0.411,1.441-0.766,2.361
		c-2.526,6.164-6.009,9.559-9.809,9.559c-1.512,0-2.536-0.514-2.814-0.672c-0.759-0.43,0.191-3.139,0.549-4.158
		c0.75-2.135,5.253-12.412,6.758-15.3c1.754-3.367,2.347-6.137-0.116-9.537C21.749-2.736,20.219-3.5,18.447-3.5L18.447-3.5z"/>
</g>
</svg>
