<?xml version="1.0" encoding="utf-8"?>
<!-- Generator: Adobe Illustrator 17.1.0, SVG Export Plug-In . SVG Version: 6.00 Build 0)  -->
<!DOCTYPE svg PUBLIC "-//W3C//DTD SVG 1.1//EN" "http://www.w3.org/Graphics/SVG/1.1/DTD/svg11.dtd">
<svg version="1.1" id="Layer_1" xmlns="http://www.w3.org/2000/svg" xmlns:xlink="http://www.w3.org/1999/xlink" x="0px" y="0px"
	 viewBox="0 0 23.339 19.507" enable-background="new 0 0 23.339 19.507" xml:space="preserve">
<path fill="#2EA8E0" d="M21.544,4.859c0.009,0.211,0.012,0.422,0.012,0.636c0,6.508-4.952,14.012-14.009,14.012
	c-2.782,0-5.368-0.813-7.548-2.214c0.385,0.047,0.776,0.068,1.173,0.068c2.307,0,4.431-0.785,6.117-2.108
	c-2.155-0.037-3.974-1.462-4.601-3.418c0.301,0.059,0.612,0.09,0.928,0.09c0.447,0,0.882-0.062,1.298-0.174
	c-2.254-0.453-3.953-2.443-3.953-4.828c0-0.025,0-0.043,0-0.062c0.664,0.366,1.425,0.59,2.232,0.615
	C1.872,6.591,1.003,5.086,1.003,3.378c0-0.904,0.242-1.748,0.667-2.478c2.428,2.981,6.058,4.94,10.15,5.148
	c-0.084-0.36-0.127-0.739-0.127-1.124c0-2.72,2.205-4.924,4.924-4.924c1.416,0,2.695,0.599,3.592,1.555
	c1.124-0.22,2.176-0.63,3.13-1.195c-0.369,1.149-1.149,2.114-2.167,2.723C22.168,2.968,23.118,2.701,24,2.31
	C23.339,3.297,22.507,4.163,21.544,4.859z"/>
</svg>
